<svg xmlns="http://www.w3.org/2000/svg" viewBox="0 0 1000 300" width="1000" height="300">
<!--
PHP Easing Functions
Author: Simon André <smn.andre@gmail.com>
https://github.com/smnandre/easing-functions
Licence: MIT
-->
<style> @keyframes drawLine { 0% { stroke-dashoffset: var(--total-length); } 10% { stroke-dashoffset: 0; } 60% { stroke-dashoffset: calc(2 * var(--total-length)); } } @keyframes fadeOut { 0% { opacity: 1; } 20% { opacity: 1; } 60% { opacity: 0; } } @keyframes rotateHue { 0% { stroke: hsl(calc(45deg + var(--i) * 18deg), 90%, 50%); } 40% { stroke: hsl(calc(45deg + var(--i) * 18deg - 60deg), 60%, 100%); } } .function-line { --anim-time: 3s; stroke: hsl(calc(45deg + var(--i) * 18deg), 80%, 50%); stroke-width: 2; fill: none; opacity: 0; stroke-dasharray: var(--total-length); stroke-dashoffset: var(--total-length); animation: drawLine calc(5 * var(--anim-time)) linear forwards, fadeOut calc(5 * var(--anim-time)) linear forwards, rotateHue calc(5 * var(--anim-time)) linear forwards; animation-delay: calc(-0.5s * var(--i)), calc(-0.5s * var(--i)), calc(-0.5s * var(--i)); animation-iteration-count: infinite; } </style> <rect width="100%" height="100%" fill="#040308"/>
<polyline points="40,260 55.33,259.93 70.66,259.75 86,259.45 101.33,259.02 116.66,258.47 132,257.8 147.33,257.00 162.66,256.08 178,255.05 193.33,253.88 208.66,252.60 224,251.2 239.33,249.67 254.66,248.02 270,246.25 285.33,244.35 300.66,242.33 316,240.2 331.33,237.93 346.66,235.55 362,233.05 377.33,230.42 392.66,227.67 408,224.8 423.33,221.80 438.66,218.68 454,215.45 469.33,212.08 484.66,208.60 500,205 515.33,201.27 530.66,197.42 546,193.45 561.33,189.35 576.66,185.13 592,180.8 607.33,176.33 622.66,171.75 638,167.05 653.33,162.22 668.66,157.27 684,152.2 699.33,147.00 714.66,141.68 730,136.25 745.33,130.68 760.66,125.00 776,119.2 791.33,113.27 806.66,107.22 822,101.05 837.33,94.75 852.66,88.33 868,81.8 883.33,75.13 898.66,68.35 914,61.45 929.33,54.42 944.66,47.27 960,40" class="function-line" style="--i: 0;--total-length: 953.95 ; --anim-time: 2s;"/>
<polyline points="40,260 55.33,252.72 70.66,245.57 86,238.55 101.33,231.64 116.66,224.86 132,218.2 147.33,211.66 162.66,205.24 178,198.95 193.33,192.77 208.66,186.72 224,180.8 239.33,174.99 254.66,169.31 270,163.75 285.33,158.31 300.66,152.99 316,147.8 331.33,142.72 346.66,137.77 362,132.95 377.33,128.24 392.66,123.66 408,119.2 423.33,114.86 438.66,110.64 454,106.55 469.33,102.57 484.66,98.72 500,95 515.33,91.39 530.66,87.91 546,84.55 561.33,81.31 576.66,78.19 592,75.2 607.33,72.32 622.66,69.57 638,66.95 653.33,64.44 668.66,62.06 684,59.8 699.33,57.66 714.66,55.64 730,53.75 745.33,51.97 760.66,50.32 776,48.8 791.33,47.39 806.66,46.11 822,44.95 837.33,43.91 852.66,42.99 868,42.2 883.33,41.52 898.66,40.97 914,40.55 929.33,40.24 944.66,40.06 960,40" class="function-line" style="--i: 1;--total-length: 953.95 ; --anim-time: 2s;"/>
<polyline points="40,260 55.33,259.87 70.66,259.51 86,258.9 101.33,258.04 116.66,256.94 132,255.6 147.33,254.01 162.66,252.17 178,250.1 193.33,247.77 208.66,245.21 224,242.4 239.33,239.34 254.66,236.04 270,232.5 285.33,228.71 300.66,224.67 316,220.4 331.33,215.87 346.66,211.11 362,206.1 377.33,200.84 392.66,195.34 408,189.6 423.33,183.61 438.66,177.37 454,170.9 469.33,164.17 484.66,157.21 500,150 515.33,142.78 530.66,135.82 546,129.1 561.33,122.62 576.66,116.38 592,110.4 607.33,104.65 622.66,99.15 638,93.9 653.33,88.88 668.66,84.12 684,79.6 699.33,75.32 714.66,71.28 730,67.5 745.33,63.95 760.66,60.65 776,57.6 791.33,54.78 806.66,52.22 822,49.9 837.33,47.82 852.66,45.98 868,44.4 883.33,43.05 898.66,41.95 914,41.1 929.33,40.48 944.66,40.12 960,40" class="function-line" style="--i: 2;--total-length: 953.94 ; --anim-time: 2s;"/>
<polyline points="40,260 55.33,259.99 70.66,259.99 86,259.97 101.33,259.93 116.66,259.87 132,259.78 147.33,259.65 162.66,259.47 178,259.25 193.33,258.98 208.66,258.64 224,258.24 239.33,257.76 254.66,257.20 270,256.56 285.33,255.82 300.66,254.99 316,254.06 331.33,253.01 346.66,251.85 362,250.56 377.33,249.15 392.66,247.60 408,245.92 423.33,244.08 438.66,242.09 454,239.95 469.33,237.64 484.66,235.15 500,232.5 515.33,229.65 530.66,226.62 546,223.39 561.33,219.96 576.66,216.33 592,212.48 607.33,208.40 622.66,204.11 638,199.58 653.33,194.81 668.66,189.80 684,184.54 699.33,179.02 714.66,173.23 730,167.18 745.33,160.86 760.66,154.25 776,147.36 791.33,140.17 806.66,132.68 822,124.89 837.33,116.78 852.66,108.36 868,99.62 883.33,90.54 898.66,81.13 914,71.37 929.33,61.27 944.66,50.81 960,40" class="function-line" style="--i: 3;--total-length: 964.44 ; --anim-time: 2s;"/>
<polyline points="40,260 55.33,249.18 70.66,238.72 86,228.62 101.33,218.86 116.66,209.45 132,200.38 147.33,191.63 162.66,183.21 178,175.10 193.33,167.31 208.66,159.82 224,152.64 239.33,145.74 254.66,139.13 270,132.81 285.33,126.76 300.66,120.97 316,115.46 331.33,110.19 346.66,105.18 362,100.41 377.33,95.88 392.66,91.59 408,87.52 423.33,83.66 438.66,80.03 454,76.60 469.33,73.37 484.66,70.34 500,67.5 515.33,64.84 530.66,62.35 546,60.04 561.33,57.90 576.66,55.91 592,54.08 607.33,52.39 622.66,50.84 638,49.43 653.33,48.14 668.66,46.98 684,45.94 699.33,45.00 714.66,44.17 730,43.43 745.33,42.79 760.66,42.23 776,41.76 791.33,41.35 806.66,41.01 822,40.74 837.33,40.52 852.66,40.34 868,40.22 883.33,40.12 898.66,40.06 914,40.02 929.33,40.00 944.66,40.00 960,40" class="function-line" style="--i: 4;--total-length: 964.44 ; --anim-time: 2s;"/>
<polyline points="40,260 55.33,259.99 70.66,259.96 86,259.89 101.33,259.73 116.66,259.49 132,259.12 147.33,258.60 162.66,257.91 178,257.03 193.33,255.92 208.66,254.57 224,252.96 239.33,251.04 254.66,248.82 270,246.25 285.33,243.31 300.66,239.98 316,236.24 331.33,232.05 346.66,227.40 362,222.27 377.33,216.61 392.66,210.43 408,203.68 423.33,196.34 438.66,188.39 454,179.81 469.33,170.56 484.66,160.63 500,150 515.33,139.36 530.66,129.43 546,120.19 561.33,111.60 576.66,103.65 592,96.32 607.33,89.56 622.66,83.38 638,77.73 653.33,72.59 668.66,67.94 684,63.76 699.33,60.01 714.66,56.68 730,53.75 745.33,51.17 760.66,48.95 776,47.04 791.33,45.42 806.66,44.07 822,42.97 837.33,42.08 852.66,41.39 868,40.88 883.33,40.50 898.66,40.26 914,40.11 929.33,40.03 944.66,40.00 960,40" class="function-line" style="--i: 5;--total-length: 964.42 ; --anim-time: 2s;"/>
<polyline points="40,260 55.33,259.99 70.66,259.99 86,259.99 101.33,259.99 116.66,259.98 132,259.97 147.33,259.95 162.66,259.93 178,259.88 193.33,259.83 208.66,259.75 224,259.64 239.33,259.51 254.66,259.34 270,259.14 285.33,258.88 300.66,258.58 316,258.21 331.33,257.78 346.66,257.28 362,256.69 377.33,256.02 392.66,255.24 408,254.36 423.33,253.36 438.66,252.24 454,250.97 469.33,249.56 484.66,247.99 500,246.25 515.33,244.32 530.66,242.20 546,239.86 561.33,237.31 576.66,234.52 592,231.48 607.33,228.18 622.66,224.60 638,220.72 653.33,216.54 668.66,212.03 684,207.17 699.33,201.96 714.66,196.37 730,190.39 745.33,183.99 760.66,177.16 776,169.88 791.33,162.14 806.66,153.90 822,145.15 837.33,135.88 852.66,126.05 868,115.65 883.33,104.66 898.66,93.05 914,80.80 929.33,67.89 944.66,54.30 960,40" class="function-line" style="--i: 6;--total-length: 974.35 ; --anim-time: 2s;"/>
<polyline points="40,260 55.33,245.69 70.66,232.10 86,219.19 101.33,206.94 116.66,195.33 132,184.34 147.33,173.94 162.66,164.11 178,154.84 193.33,146.09 208.66,137.85 224,130.11 239.33,122.83 254.66,116.00 270,109.60 285.33,103.62 300.66,98.03 316,92.82 331.33,87.96 346.66,83.45 362,79.27 377.33,75.39 392.66,71.81 408,68.51 423.33,65.47 438.66,62.68 454,60.13 469.33,57.79 484.66,55.67 500,53.75 515.33,52.00 530.66,50.43 546,49.02 561.33,47.75 576.66,46.63 592,45.63 607.33,44.75 622.66,43.97 638,43.30 653.33,42.71 668.66,42.21 684,41.78 699.33,41.41 714.66,41.11 730,40.85 745.33,40.65 760.66,40.48 776,40.35 791.33,40.24 806.66,40.16 822,40.11 837.33,40.06 852.66,40.04 868,40.02 883.33,40.01 898.66,40.00 914,40.00 929.33,40.00 944.66,40.00 960,40" class="function-line" style="--i: 7;--total-length: 974.35 ; --anim-time: 2s;"/>
<polyline points="40,260 55.33,259.99 70.66,259.99 86,259.98 101.33,259.96 116.66,259.91 132,259.82 147.33,259.67 162.66,259.44 178,259.10 193.33,258.64 208.66,258.01 224,257.18 239.33,256.12 254.66,254.78 270,253.12 285.33,251.10 300.66,248.65 316,245.74 331.33,242.30 346.66,238.27 362,233.58 377.33,228.18 392.66,221.99 408,214.94 423.33,206.95 438.66,197.94 454,187.82 469.33,176.52 484.66,163.94 500,150 515.33,136.05 530.66,123.47 546,112.17 561.33,102.05 576.66,93.04 592,85.05 607.33,78.00 622.66,71.81 638,66.41 653.33,61.72 668.66,57.69 684,54.25 699.33,51.34 714.66,48.89 730,46.87 745.33,45.21 760.66,43.87 776,42.81 791.33,41.98 806.66,41.35 822,40.89 837.33,40.55 852.66,40.32 868,40.17 883.33,40.08 898.66,40.03 914,40.01 929.33,40.00 944.66,40.00 960,40" class="function-line" style="--i: 8;--total-length: 974.31 ; --anim-time: 2s;"/>
<polyline points="40,260 55.33,259.99 70.66,259.99 86,259.99 101.33,259.99 116.66,259.99 132,259.99 147.33,259.99 162.66,259.99 178,259.98 193.33,259.97 208.66,259.95 224,259.92 239.33,259.89 254.66,259.84 270,259.78 285.33,259.70 300.66,259.59 316,259.46 331.33,259.29 346.66,259.09 362,258.84 377.33,258.54 392.66,258.17 408,257.74 423.33,257.23 438.66,256.63 454,255.94 469.33,255.13 484.66,254.19 500,253.12 515.33,251.90 530.66,250.50 546,248.92 561.33,247.14 576.66,245.14 592,242.89 607.33,240.38 622.66,237.58 638,234.47 653.33,231.02 668.66,227.22 684,223.02 699.33,218.40 714.66,213.34 730,207.79 745.33,201.72 760.66,195.11 776,187.91 791.33,180.08 806.66,171.58 822,162.38 837.33,152.43 852.66,141.68 868,130.09 883.33,117.60 898.66,104.18 914,89.76 929.33,74.30 944.66,57.73 960,40" class="function-line" style="--i: 9;--total-length: 983.36 ; --anim-time: 2s;"/>
<polyline points="40,260 55.33,242.26 70.66,225.69 86,210.23 101.33,195.81 116.66,182.39 132,169.90 147.33,158.31 162.66,147.56 178,137.61 193.33,128.41 208.66,119.91 224,112.08 239.33,104.88 254.66,98.27 270,92.20 285.33,86.65 300.66,81.59 316,76.97 331.33,72.77 346.66,68.97 362,65.52 377.33,62.41 392.66,59.61 408,57.10 423.33,54.85 438.66,52.85 454,51.07 469.33,49.49 484.66,48.09 500,46.87 515.33,45.80 530.66,44.86 546,44.05 561.33,43.36 576.66,42.76 592,42.25 607.33,41.82 622.66,41.45 638,41.15 653.33,40.90 668.66,40.70 684,40.53 699.33,40.40 714.66,40.29 730,40.21 745.33,40.15 760.66,40.10 776,40.07 791.33,40.04 806.66,40.02 822,40.01 837.33,40.00 852.66,40.00 868,40.00 883.33,40.00 898.66,40.00 914,40.00 929.33,40.00 944.66,40.00 960,40" class="function-line" style="--i: 10;--total-length: 983.36 ; --anim-time: 2s;"/>
<polyline points="40,260 55.33,259.99 70.66,259.99 86,259.99 101.33,259.99 116.66,259.98 132,259.96 147.33,259.92 162.66,259.85 178,259.73 193.33,259.54 208.66,259.27 224,258.87 239.33,258.31 254.66,257.56 270,256.56 285.33,255.25 300.66,253.57 316,251.44 331.33,248.79 346.66,245.51 362,241.51 377.33,236.67 392.66,230.86 408,223.95 423.33,215.79 438.66,206.21 454,195.04 469.33,182.09 484.66,167.15 500,150 515.33,132.84 530.66,117.90 546,104.95 561.33,93.78 576.66,84.20 592,76.04 607.33,69.13 622.66,63.32 638,58.48 653.33,54.48 668.66,51.20 684,48.55 699.33,46.42 714.66,44.74 730,43.43 745.33,42.43 760.66,41.68 776,41.12 791.33,40.72 806.66,40.45 822,40.26 837.33,40.14 852.66,40.07 868,40.03 883.33,40.01 898.66,40.00 914,40.00 929.33,40.00 944.66,40.00 960,40" class="function-line" style="--i: 11;--total-length: 983.30 ; --anim-time: 2s;"/>
<polyline points="40,260 55.33,259.92 70.66,259.69 86,259.32 101.33,258.79 116.66,258.11 132,257.29 147.33,256.31 162.66,255.19 178,253.92 193.33,252.50 208.66,250.94 224,249.23 239.33,247.38 254.66,245.38 270,243.25 285.33,240.98 300.66,238.56 316,236.02 331.33,233.33 346.66,230.52 362,227.58 377.33,224.50 392.66,221.30 408,217.98 423.33,214.53 438.66,210.97 454,207.28 469.33,203.49 484.66,199.58 500,195.56 515.33,191.43 530.66,187.20 546,182.87 561.33,178.45 576.66,173.92 592,169.31 607.33,164.60 622.66,159.82 638,154.94 653.33,150 668.66,144.97 684,139.87 699.33,134.71 714.66,129.48 730,124.19 745.33,118.84 760.66,113.43 776,107.98 791.33,102.48 806.66,96.94 822,91.35 837.33,85.74 852.66,80.09 868,74.41 883.33,68.71 898.66,62.99 914,57.26 929.33,51.51 944.66,45.75 960,40" class="function-line" style="--i: 12;--total-length: 951.63 ; --anim-time: 2s;"/>
<polyline points="40,260 55.33,254.24 70.66,248.48 86,242.73 101.33,237.00 116.66,231.28 132,225.58 147.33,219.90 162.66,214.25 178,208.64 193.33,203.05 208.66,197.51 224,192.01 239.33,186.56 254.66,181.15 270,175.80 285.33,170.51 300.66,165.28 316,160.12 331.33,155.02 346.66,150 362,145.05 377.33,140.17 392.66,135.39 408,130.68 423.33,126.07 438.66,121.54 454,117.12 469.33,112.79 484.66,108.56 500,104.43 515.33,100.41 530.66,96.50 546,92.71 561.33,89.02 576.66,85.46 592,82.01 607.33,78.69 622.66,75.49 638,72.41 653.33,69.47 668.66,66.66 684,63.97 699.33,61.43 714.66,59.01 730,56.74 745.33,54.61 760.66,52.61 776,50.76 791.33,49.05 806.66,47.49 822,46.07 837.33,44.80 852.66,43.68 868,42.70 883.33,41.88 898.66,41.20 914,40.67 929.33,40.30 944.66,40.07 960,40" class="function-line" style="--i: 13;--total-length: 951.63 ; --anim-time: 2s;"/>
<polyline points="40,260 55.33,259.84 70.66,259.39 86,258.64 101.33,257.59 116.66,256.25 132,254.61 147.33,252.69 162.66,250.49 178,248.01 193.33,245.26 208.66,242.25 224,238.99 239.33,235.48 254.66,231.74 270,227.78 285.33,223.60 300.66,219.22 316,214.65 331.33,209.91 346.66,205 362,199.93 377.33,194.74 392.66,189.42 408,183.99 423.33,178.47 438.66,172.87 454,167.20 469.33,161.49 484.66,155.75 500,150 515.33,144.24 530.66,138.50 546,132.79 561.33,127.12 576.66,121.52 592,116.00 607.33,110.57 622.66,105.25 638,100.06 653.33,95 668.66,90.08 684,85.34 699.33,80.77 714.66,76.39 730,72.21 745.33,68.25 760.66,64.51 776,61.00 791.33,57.74 806.66,54.73 822,51.98 837.33,49.50 852.66,47.30 868,45.38 883.33,43.74 898.66,42.40 914,41.35 929.33,40.60 944.66,40.15 960,40" class="function-line" style="--i: 14;--total-length: 951.63 ; --anim-time: 2s;"/>
<polyline points="40,259.78 55.33,259.75 70.66,259.72 86,259.69 101.33,259.65 116.66,259.61 132,259.57 147.33,259.51 162.66,259.45 178,259.39 193.33,259.31 208.66,259.23 224,259.14 239.33,259.03 254.66,258.91 270,258.78 285.33,258.63 300.66,258.46 316,258.28 331.33,258.07 346.66,257.83 362,257.56 377.33,257.27 392.66,256.93 408,256.56 423.33,256.14 438.66,255.66 454,255.13 469.33,254.54 484.66,253.87 500,253.12 515.33,252.28 530.66,251.33 546,250.27 561.33,249.08 576.66,247.75 592,246.25 607.33,244.56 622.66,242.67 638,240.55 653.33,238.17 668.66,235.50 684,232.5 699.33,229.13 714.66,225.35 730,221.10 745.33,216.34 760.66,211.00 776,205 791.33,198.26 806.66,190.70 822,182.21 837.33,172.69 852.66,162.00 868,150 883.33,136.52 898.66,121.40 914,104.43 929.33,85.38 944.66,64.00 960,40" class="function-line" style="--i: 15;--total-length: 993.22 ; --anim-time: 2s;"/>
<polyline points="40,260 55.33,235.99 70.66,214.61 86,195.56 101.33,178.59 116.66,163.47 132,150 147.33,137.99 162.66,127.30 178,117.78 193.33,109.29 208.66,101.73 224,95 239.33,88.99 254.66,83.65 270,78.89 285.33,74.64 300.66,70.86 316,67.5 331.33,64.49 346.66,61.82 362,59.44 377.33,57.32 392.66,55.43 408,53.75 423.33,52.24 438.66,50.91 454,49.72 469.33,48.66 484.66,47.71 500,46.87 515.33,46.12 530.66,45.45 546,44.86 561.33,44.33 576.66,43.85 592,43.43 607.33,43.06 622.66,42.72 638,42.43 653.33,42.16 668.66,41.92 684,41.71 699.33,41.53 714.66,41.36 730,41.21 745.33,41.08 760.66,40.96 776,40.85 791.33,40.76 806.66,40.68 822,40.60 837.33,40.54 852.66,40.48 868,40.42 883.33,40.38 898.66,40.34 914,40.30 929.33,40.27 944.66,40.24 960,40" class="function-line" style="--i: 16;--total-length: 993.22 ; --anim-time: 2s;"/>
<polyline points="40,260 55.33,259.86 70.66,259.82 86,259.78 101.33,259.72 116.66,259.65 132,259.57 147.33,259.45 162.66,259.31 178,259.14 193.33,258.91 208.66,258.63 224,258.28 239.33,257.83 254.66,257.27 270,256.56 285.33,255.66 300.66,254.54 316,253.12 331.33,251.33 346.66,249.08 362,246.25 377.33,242.67 392.66,238.17 408,232.5 423.33,225.35 438.66,216.34 454,205 469.33,190.70 484.66,172.69 500,150 515.33,127.30 530.66,109.29 546,95 561.33,83.65 576.66,74.64 592,67.5 607.33,61.82 622.66,57.32 638,53.75 653.33,50.91 668.66,48.66 684,46.87 699.33,45.45 714.66,44.33 730,43.43 745.33,42.72 760.66,42.16 776,41.71 791.33,41.36 806.66,41.08 822,40.85 837.33,40.68 852.66,40.54 868,40.42 883.33,40.34 898.66,40.27 914,40.21 929.33,40.17 944.66,40.13 960,40" class="function-line" style="--i: 17;--total-length: 993.12 ; --anim-time: 2s;"/>
<polyline points="40,260 55.33,259.96 70.66,259.87 86,259.72 101.33,259.51 116.66,259.23 132,258.89 147.33,258.49 162.66,258.03 178,257.51 193.33,256.92 208.66,256.27 224,255.55 239.33,254.77 254.66,253.92 270,253.01 285.33,252.03 300.66,250.98 316,249.86 331.33,248.67 346.66,247.41 362,246.08 377.33,244.67 392.66,243.19 408,241.63 423.33,239.99 438.66,238.27 454,236.46 469.33,234.57 484.66,232.59 500,230.52 515.33,228.36 530.66,226.09 546,223.73 561.33,221.26 576.66,218.69 592,216 607.33,213.18 622.66,210.25 638,207.18 653.33,203.97 668.66,200.62 684,197.11 699.33,193.43 714.66,189.57 730,185.51 745.33,181.24 760.66,176.75 776,172 791.33,166.96 806.66,161.60 822,155.89 837.33,149.75 852.66,143.12 868,135.89 883.33,127.92 898.66,118.98 914,108.69 929.33,96.32 944.66,79.99 960,40" class="function-line" style="--i: 18;--total-length: 981.10 ; --anim-time: 2s;"/>
<polyline points="40,260 55.33,220.00 70.66,203.67 86,191.30 101.33,181.01 116.66,172.07 132,164.10 147.33,156.87 162.66,150.24 178,144.10 193.33,138.39 208.66,133.03 224,128 239.33,123.24 254.66,118.75 270,114.48 285.33,110.42 300.66,106.56 316,102.88 331.33,99.37 346.66,96.02 362,92.81 377.33,89.74 392.66,86.81 408,84 423.33,81.30 438.66,78.73 454,76.26 469.33,73.90 484.66,71.63 500,69.47 515.33,67.40 530.66,65.42 546,63.53 561.33,61.72 576.66,60.00 592,58.36 607.33,56.80 622.66,55.32 638,53.91 653.33,52.58 668.66,51.32 684,50.13 699.33,49.01 714.66,47.96 730,46.98 745.33,46.07 760.66,45.22 776,44.44 791.33,43.72 806.66,43.07 822,42.48 837.33,41.96 852.66,41.50 868,41.10 883.33,40.76 898.66,40.48 914,40.27 929.33,40.12 944.66,40.03 960,40" class="function-line" style="--i: 19;--total-length: 981.10 ; --anim-time: 2s;"/>
<polyline points="40,260 55.33,259.93 70.66,259.75 86,259.44 101.33,259.01 116.66,258.46 132,257.77 147.33,256.96 162.66,256.01 178,254.93 193.33,253.70 208.66,252.33 224,250.81 239.33,249.13 254.66,247.28 270,245.26 285.33,243.04 300.66,240.63 316,238 331.33,235.12 346.66,231.98 362,228.55 377.33,224.78 392.66,220.62 408,216 423.33,210.80 438.66,204.87 454,197.94 469.33,189.49 484.66,178.16 500,150 515.33,121.83 530.66,110.50 546,102.05 561.33,95.12 576.66,89.19 592,84 607.33,79.37 622.66,75.21 638,71.44 653.33,68.01 668.66,64.87 684,62 699.33,59.36 714.66,56.95 730,54.73 745.33,52.71 760.66,50.86 776,49.18 791.33,47.66 806.66,46.29 822,45.06 837.33,43.98 852.66,43.03 868,42.22 883.33,41.53 898.66,40.98 914,40.55 929.33,40.24 944.66,40.06 960,40" class="function-line" style="--i: 20;--total-length: 979.94 ; --anim-time: 2s;"/>
<polyline points="40,260 55.33,260.10 70.66,260.39 86,260.86 101.33,261.48 116.66,262.25 132,263.14 147.33,264.15 162.66,265.24 178,266.41 193.33,267.64 208.66,268.91 224,270.21 239.33,271.52 254.66,272.83 270,274.11 285.33,275.34 300.66,276.53 316,277.64 331.33,278.66 346.66,279.58 362,280.37 377.33,281.02 392.66,281.52 408,281.85 423.33,281.99 438.66,281.93 454,281.64 469.33,281.12 484.66,280.34 500,279.29 515.33,277.95 530.66,276.31 546,274.35 561.33,272.05 576.66,269.40 592,266.38 607.33,262.97 622.66,259.16 638,254.93 653.33,250.27 668.66,245.15 684,239.56 699.33,233.49 714.66,226.92 730,219.83 745.33,212.20 760.66,204.02 776,195.27 791.33,185.94 806.66,176.01 822,165.46 837.33,154.27 852.66,142.44 868,129.94 883.33,116.75 898.66,102.87 914,88.26 929.33,72.93 944.66,56.85 960,40" class="function-line" style="--i: 21;--total-length: 993.66 ; --anim-time: 2s;"/>
<polyline points="40,260 55.33,243.14 70.66,227.06 86,211.73 101.33,197.12 116.66,183.24 132,170.05 147.33,157.55 162.66,145.72 178,134.53 193.33,123.98 208.66,114.05 224,104.72 239.33,95.97 254.66,87.79 270,80.16 285.33,73.07 300.66,66.50 316,60.43 331.33,54.84 346.66,49.72 362,45.06 377.33,40.83 392.66,37.02 408,33.61 423.33,30.59 438.66,27.94 454,25.64 469.33,23.68 484.66,22.04 500,20.70 515.33,19.65 530.66,18.87 546,18.35 561.33,18.06 576.66,18.00 592,18.14 607.33,18.47 622.66,18.97 638,19.62 653.33,20.41 668.66,21.33 684,22.35 699.33,23.46 714.66,24.65 730,25.88 745.33,27.16 760.66,28.47 776,29.78 791.33,31.08 806.66,32.35 822,33.58 837.33,34.75 852.66,35.84 868,36.85 883.33,37.74 898.66,38.51 914,39.13 929.33,39.60 944.66,39.89 960,40" class="function-line" style="--i: 22;--total-length: 993.66 ; --anim-time: 2s;"/>
<polyline points="40,260 55.33,260.30 70.66,261.15 86,262.45 101.33,264.13 116.66,266.09 132,268.25 147.33,270.51 162.66,272.79 178,275.01 193.33,277.06 208.66,278.88 224,280.36 239.33,281.42 254.66,281.97 270,281.93 285.33,281.20 300.66,279.70 316,277.34 331.33,274.03 346.66,269.69 362,264.22 377.33,257.55 392.66,249.57 408,240.21 423.33,229.37 438.66,216.98 454,202.93 469.33,187.14 484.66,169.52 500,150 515.33,130.47 530.66,112.85 546,97.06 561.33,83.01 576.66,70.62 592,59.78 607.33,50.42 622.66,42.44 638,35.77 653.33,30.30 668.66,25.96 684,22.65 699.33,20.29 714.66,18.79 730,18.06 745.33,18.02 760.66,18.57 776,19.63 791.33,21.11 806.66,22.93 822,24.98 837.33,27.20 852.66,29.48 868,31.74 883.33,33.90 898.66,35.86 914,37.54 929.33,38.84 944.66,39.69 960,40" class="function-line" style="--i: 23;--total-length: 1013.86 ; --anim-time: 2s;"/>
<polyline points="40,260 55.33,260.04 70.66,259.95 86,259.84 101.33,259.73 116.66,259.64 132,259.57 147.33,259.54 162.66,259.58 178,259.69 193.33,259.88 208.66,260.13 224,260.42 239.33,260.73 254.66,261.01 270,261.21 285.33,261.28 300.66,261.17 316,260.85 331.33,260.33 346.66,259.62 362,258.78 377.33,257.90 392.66,257.12 408,256.56 423.33,256.37 438.66,256.68 454,257.56 469.33,259.05 484.66,261.06 500,263.43 515.33,265.91 530.66,268.13 546,269.72 561.33,270.25 576.66,269.38 592,266.87 607.33,262.68 622.66,256.99 638,250.27 653.33,243.27 668.66,236.97 684,232.5 699.33,230.99 714.66,233.45 730,240.55 745.33,252.41 760.66,268.50 776,287.5 791.33,307.29 806.66,325.11 822,337.78 837.33,342.04 852.66,335.07 868,315 883.33,281.44 898.66,235.93 914,182.21 929.33,126.23 944.66,75.82 960,40" class="function-line" style="--i: 24;--total-length: 1182.40 ; --anim-time: 2s;"/>
<polyline points="40,260 55.33,224.17 70.66,173.76 86,117.78 101.33,64.06 116.66,18.55 132,-15 147.33,-35.07 162.66,-42.04 178,-37.78 193.33,-25.11 208.66,-7.2920698095638 224,12.5 239.33,31.49 254.66,47.58 270,59.44 285.33,66.54 300.66,69.00 316,67.5 331.33,63.02 346.66,56.72 362,49.72 377.33,43.00 392.66,37.31 408,33.12 423.33,30.61 438.66,29.74 454,30.27 469.33,31.86 484.66,34.08 500,36.56 515.33,38.93 530.66,40.94 546,42.43 561.33,43.31 576.66,43.62 592,43.43 607.33,42.87 622.66,42.09 638,41.21 653.33,40.37 668.66,39.66 684,39.14 699.33,38.82 714.66,38.71 730,38.78 745.33,38.98 760.66,39.26 776,39.57 791.33,39.86 806.66,40.11 822,40.30 837.33,40.41 852.66,40.45 868,40.42 883.33,40.35 898.66,40.26 914,40.15 929.33,40.04 944.66,39.95 960,40" class="function-line" style="--i: 25;--total-length: 1182.40 ; --anim-time: 2s;"/>
<polyline points="40,260 55.33,259.91 70.66,259.84 86,259.78 101.33,259.75 116.66,259.79 132,259.92 147.33,260.15 162.66,260.46 178,260.80 193.33,261.07 208.66,261.13 224,260.85 239.33,260.12 254.66,258.91 270,257.36 285.33,255.78 300.66,254.69 316,254.73 331.33,256.56 346.66,260.63 362,266.87 377.33,274.47 392.66,281.67 408,285.84 423.33,283.77 438.66,272.51 454,250.44 469.33,218.61 484.66,181.97 500,150 515.33,118.02 530.66,81.38 546,49.55 561.33,27.48 576.66,16.22 592,14.15 607.33,18.32 622.66,25.52 638,33.12 653.33,39.36 668.66,43.43 684,45.26 699.33,45.30 714.66,44.21 730,42.63 745.33,41.08 760.66,39.87 776,39.14 791.33,38.86 806.66,38.92 822,39.19 837.33,39.53 852.66,39.84 868,40.07 883.33,40.20 898.66,40.24 914,40.21 929.33,40.15 944.66,40.08 960,40" class="function-line" style="--i: 26;--total-length: 1091.93 ; --anim-time: 2s;"/>
<polyline points="40,260 55.33,257.94 70.66,256.80 86,256.59 101.33,257.31 116.66,258.94 132,257.38 147.33,253.31 162.66,250.16 178,247.93 193.33,246.63 208.66,246.25 224,246.8 239.33,248.27 254.66,250.66 270,253.98 285.33,258.22 300.66,253.77 316,244.73 331.33,236.62 346.66,229.44 362,223.18 377.33,217.84 392.66,213.43 408,209.95 423.33,207.38 438.66,205.74 454,205.03 469.33,205.24 484.66,206.37 500,208.43 515.33,211.42 530.66,215.32 546,220.15 561.33,225.91 576.66,232.59 592,240.2 607.33,248.72 622.66,258.18 638,243.80 653.33,224.86 668.66,206.83 684,189.73 699.33,173.56 714.66,158.31 730,143.98 745.33,130.58 760.66,118.10 776,106.55 791.33,95.92 806.66,86.21 822,77.43 837.33,69.57 852.66,62.64 868,56.63 883.33,51.55 898.66,47.39 914,44.15 929.33,41.84 944.66,40.46 960,40" class="function-line" style="--i: 27;--total-length: 1021.49 ; --anim-time: 2s;"/>
<polyline points="40,260 55.33,259.53 70.66,258.15 86,255.84 101.33,252.60 116.66,248.44 132,243.36 147.33,237.35 162.66,230.42 178,222.56 193.33,213.78 208.66,204.07 224,193.45 239.33,181.89 254.66,169.41 270,156.01 285.33,141.68 300.66,126.43 316,110.26 331.33,93.16 346.66,75.13 362,56.19 377.33,41.81 392.66,51.27 408,59.8 423.33,67.40 438.66,74.08 454,79.84 469.33,84.67 484.66,88.57 500,91.56 515.33,93.62 530.66,94.75 546,94.96 561.33,94.25 576.66,92.61 592,90.05 607.33,86.56 622.66,82.15 638,76.81 653.33,70.55 668.66,63.37 684,55.26 699.33,46.22 714.66,41.77 730,46.01 745.33,49.33 760.66,51.72 776,53.2 791.33,53.74 806.66,53.36 822,52.06 837.33,49.83 852.66,46.68 868,42.61 883.33,41.05 898.66,42.68 914,43.40 929.33,43.19 944.66,42.05 960,40" class="function-line" style="--i: 28;--total-length: 1021.49 ; --anim-time: 2s;"/>
<polyline points="40,260 55.33,258.40 70.66,258.65 86,258.69 101.33,255.08 116.66,253.31 132,253.4 147.33,255.33 162.66,259.11 178,252.36 193.33,244.72 208.66,238.92 224,234.97 239.33,232.87 254.66,232.62 270,234.21 285.33,237.66 300.66,242.95 316,250.1 331.33,259.09 346.66,242.43 362,224.86 377.33,209.15 392.66,195.29 408,183.27 423.33,173.10 438.66,164.78 454,158.31 469.33,153.69 484.66,150.92 500,150 515.33,149.07 530.66,146.30 546,141.68 561.33,135.21 576.66,126.89 592,116.72 607.33,104.70 622.66,90.84 638,75.13 653.33,57.56 668.66,40.90 684,49.9 699.33,57.04 714.66,62.33 730,65.78 745.33,67.37 760.66,67.12 776,65.02 791.33,61.07 806.66,55.27 822,47.63 837.33,40.88 852.66,44.66 868,46.6 883.33,46.68 898.66,44.91 914,41.30 929.33,41.34 944.66,41.59 960,40" class="function-line" style="--i: 29;--total-length: 1020.65 ; --anim-time: 2s;"/>
</svg>
