<svg width="220" height="80" xmlns="http://www.w3.org/2000/svg" viewBox="0 0 220 80">
  <!--
  PHP Easing Functions
  Author: Simon André <smn.andre@gmail.com>
  https://github.com/smnandre/easing-functions
  Licence: MIT
  -->
  <title>PHP easeInQuad function</title>
  <defs>
    <linearGradient id="gradient" x1="0%" y1="0%" x2="100%" y2="0%">
      <stop offset='0%' stop-color='hsl(237, 100%, 50%)'/><stop offset='2.5%' stop-color='hsl(231, 100%, 50%)'/><stop offset='5%' stop-color='hsl(225, 100%, 50%)'/><stop offset='7.5%' stop-color='hsl(219, 100%, 50%)'/><stop offset='10%' stop-color='hsl(213, 100%, 50%)'/><stop offset='12.5%' stop-color='hsl(207, 100%, 50%)'/><stop offset='15%' stop-color='hsl(201, 100%, 50%)'/><stop offset='17.5%' stop-color='hsl(195, 100%, 50%)'/><stop offset='20%' stop-color='hsl(189, 100%, 50%)'/><stop offset='22.5%' stop-color='hsl(183, 100%, 50%)'/><stop offset='25%' stop-color='hsl(177, 100%, 50%)'/><stop offset='27.5%' stop-color='hsl(171, 100%, 50%)'/><stop offset='30%' stop-color='hsl(165, 100%, 50%)'/><stop offset='32.5%' stop-color='hsl(159, 100%, 50%)'/><stop offset='35%' stop-color='hsl(153, 100%, 50%)'/><stop offset='37.5%' stop-color='hsl(147, 100%, 50%)'/><stop offset='40%' stop-color='hsl(141, 100%, 50%)'/><stop offset='42.5%' stop-color='hsl(135, 100%, 50%)'/><stop offset='45%' stop-color='hsl(129, 100%, 50%)'/><stop offset='47.5%' stop-color='hsl(123, 100%, 50%)'/><stop offset='50%' stop-color='hsl(117, 100%, 50%)'/><stop offset='52.5%' stop-color='hsl(111, 100%, 50%)'/><stop offset='55%' stop-color='hsl(105, 100%, 50%)'/><stop offset='57.5%' stop-color='hsl(99, 100%, 50%)'/><stop offset='60%' stop-color='hsl(93, 100%, 50%)'/><stop offset='62.5%' stop-color='hsl(87, 100%, 50%)'/><stop offset='65%' stop-color='hsl(81, 100%, 50%)'/><stop offset='67.5%' stop-color='hsl(75, 100%, 50%)'/><stop offset='70%' stop-color='hsl(69, 100%, 50%)'/><stop offset='72.5%' stop-color='hsl(63, 100%, 50%)'/><stop offset='75%' stop-color='hsl(57, 100%, 50%)'/><stop offset='77.5%' stop-color='hsl(51, 100%, 50%)'/><stop offset='80%' stop-color='hsl(45, 100%, 50%)'/><stop offset='82.5%' stop-color='hsl(39, 100%, 50%)'/><stop offset='85%' stop-color='hsl(33, 100%, 50%)'/><stop offset='87.5%' stop-color='hsl(27, 100%, 50%)'/><stop offset='90%' stop-color='hsl(21, 100%, 50%)'/><stop offset='92.5%' stop-color='hsl(15, 100%, 50%)'/><stop offset='95%' stop-color='hsl(9.0000000000003, 100%, 50%)'/><stop offset='97.5%' stop-color='hsl(2.9999999999999, 100%, 50%)'/>
    </linearGradient>
  </defs>
  <style>
    .line {
      fill: none;
      stroke: url(#gradient);
      stroke-width: 2;
      stroke-dasharray: 211.42166255528;
      stroke-dashoffset: 211.42166255528;
      animation: draw 2s linear infinite;
    }
    @keyframes draw {
      to { stroke-dashoffset: 0; }
    }
  </style>
  <rect width="100%" height="100%" fill="black"/>
  <polyline points="10,70 15,69.963 20,69.85 25,69.663 30,69.4 35,69.063 40,68.65 45,68.163 50,67.6 55,66.963 60,66.25 65,65.463 70,64.6 75,63.663 80,62.65 85,61.563 90,60.4 95,59.162 100,57.85 105,56.463 110,55 115,53.463 120,51.85 125,50.163 130,48.4 135,46.563 140,44.65 145,42.662 150,40.6 155,38.463 160,36.25 165,33.962 170,31.6 175,29.163 180,26.65 185,24.063 190,21.4 195,18.662 200,15.85 205,12.963 210,10" class="line"/>
</svg>