<svg width="220" height="80" xmlns="http://www.w3.org/2000/svg" viewBox="0 0 220 80">
  <!--
  PHP Easing Functions
  Author: Simon André <smn.andre@gmail.com>
  https://github.com/smnandre/easing-functions
  Licence: MIT
  -->
  <title>PHP easeInOutQuart function</title>
  <defs>
    <linearGradient id="gradient" x1="0%" y1="0%" x2="100%" y2="0%">
      <stop offset='0%' stop-color='hsl(239.985, 100%, 50%)'/><stop offset='2.5%' stop-color='hsl(239.775, 100%, 50%)'/><stop offset='5%' stop-color='hsl(239.025, 100%, 50%)'/><stop offset='7.5%' stop-color='hsl(237.375, 100%, 50%)'/><stop offset='10%' stop-color='hsl(234.465, 100%, 50%)'/><stop offset='12.5%' stop-color='hsl(229.935, 100%, 50%)'/><stop offset='15%' stop-color='hsl(223.425, 100%, 50%)'/><stop offset='17.5%' stop-color='hsl(214.575, 100%, 50%)'/><stop offset='20%' stop-color='hsl(203.025, 100%, 50%)'/><stop offset='22.5%' stop-color='hsl(188.415, 100%, 50%)'/><stop offset='25%' stop-color='hsl(170.385, 100%, 50%)'/><stop offset='27.5%' stop-color='hsl(148.575, 100%, 50%)'/><stop offset='30%' stop-color='hsl(122.625, 100%, 50%)'/><stop offset='32.5%' stop-color='hsl(92.175, 100%, 50%)'/><stop offset='35%' stop-color='hsl(56.865, 100%, 50%)'/><stop offset='37.5%' stop-color='hsl(16.335, 100%, 50%)'/><stop offset='40%' stop-color='hsl(0, 100%, 50%)'/><stop offset='42.5%' stop-color='hsl(0, 100%, 50%)'/><stop offset='45%' stop-color='hsl(0, 100%, 50%)'/><stop offset='47.5%' stop-color='hsl(0, 100%, 50%)'/><stop offset='50%' stop-color='hsl(0, 100%, 50%)'/><stop offset='52.5%' stop-color='hsl(0, 100%, 50%)'/><stop offset='55%' stop-color='hsl(0, 100%, 50%)'/><stop offset='57.5%' stop-color='hsl(0, 100%, 50%)'/><stop offset='60%' stop-color='hsl(16.335, 100%, 50%)'/><stop offset='62.5%' stop-color='hsl(56.865, 100%, 50%)'/><stop offset='65%' stop-color='hsl(92.175, 100%, 50%)'/><stop offset='67.5%' stop-color='hsl(122.625, 100%, 50%)'/><stop offset='70%' stop-color='hsl(148.575, 100%, 50%)'/><stop offset='72.5%' stop-color='hsl(170.385, 100%, 50%)'/><stop offset='75%' stop-color='hsl(188.415, 100%, 50%)'/><stop offset='77.5%' stop-color='hsl(203.025, 100%, 50%)'/><stop offset='80%' stop-color='hsl(214.575, 100%, 50%)'/><stop offset='82.5%' stop-color='hsl(223.425, 100%, 50%)'/><stop offset='85%' stop-color='hsl(229.935, 100%, 50%)'/><stop offset='87.5%' stop-color='hsl(234.465, 100%, 50%)'/><stop offset='90%' stop-color='hsl(237.375, 100%, 50%)'/><stop offset='92.5%' stop-color='hsl(239.025, 100%, 50%)'/><stop offset='95%' stop-color='hsl(239.775, 100%, 50%)'/><stop offset='97.5%' stop-color='hsl(239.985, 100%, 50%)'/>
    </linearGradient>
  </defs>
  <style>
    .line {
      fill: none;
      stroke: url(#gradient);
      stroke-width: 2;
      stroke-dasharray: 217.7599368515;
      stroke-dashoffset: 217.7599368515;
      animation: draw 2s linear infinite;
    }
    @keyframes draw {
      to { stroke-dashoffset: 0; }
    }
  </style>
  <rect width="100%" height="100%" fill="black"/>
  <polyline points="10,70 15,70 20,69.997 25,69.985 30,69.952 35,69.883 40,69.757 45,69.55 50,69.232 55,68.77 60,68.125 65,67.255 70,66.112 75,64.645 80,62.797 85,60.508 90,57.712 95,54.34 100,50.317 105,45.565 110,40 115,34.435 120,29.683 125,25.66 130,22.288 135,19.492 140,17.203 145,15.355 150,13.888 155,12.745 160,11.875 165,11.23 170,10.768 175,10.45 180,10.243 185,10.117 190,10.048 195,10.015 200,10.003 205,10 210,10" class="line"/>
</svg>