<svg width="160" height="90" xmlns="http://www.w3.org/2000/svg">
  <style>
    .line { stroke-width: 4; stroke-dasharray: 175.83007202173; stroke-dashoffset: 175.83007202173; animation: draw 3s infinite; }
    @keyframes draw {
      to {
        stroke-dashoffset: 0;
      }
    }
    .line { --hue: 0; stroke: hsl(var(--hue), 100%, 50%); }
  </style><rect width="100%" height="100%" fill="#000"/><line x1="8" y1="82" x2="9.44" y2="81.99999926" class="line" style="--hue:239.99988"/><line x1="9.44" y1="81.99999926" x2="10.88" y2="81.99998816" class="line" style="--hue:239.9982"/><line x1="10.88" y1="81.99998816" x2="12.32" y2="81.99994006" class="line" style="--hue:239.9922"/><line x1="12.32" y1="81.99994006" x2="13.76" y2="81.99981056" class="line" style="--hue:239.979"/><line x1="13.76" y1="81.99981056" x2="15.2" y2="81.9995375" class="line" style="--hue:239.95572"/><line x1="15.2" y1="81.9995375" x2="16.64" y2="81.99904096" class="line" style="--hue:239.91948"/><line x1="16.64" y1="81.99904096" x2="18.08" y2="81.99822326" class="line" style="--hue:239.8674"/><line x1="18.08" y1="81.99822326" x2="19.52" y2="81.99696896" class="line" style="--hue:239.7966"/><line x1="19.52" y1="81.99696896" x2="20.96" y2="81.99514486" class="line" style="--hue:239.7042"/><line x1="20.96" y1="81.99514486" x2="22.4" y2="81.9926" class="line" style="--hue:239.58732"/><line x1="22.4" y1="81.9926" x2="23.84" y2="81.98916566" class="line" style="--hue:239.44308"/><line x1="23.84" y1="81.98916566" x2="25.28" y2="81.98465536" class="line" style="--hue:239.2686"/><line x1="25.28" y1="81.98465536" x2="26.72" y2="81.97886486" class="line" style="--hue:239.061"/><line x1="26.72" y1="81.97886486" x2="28.16" y2="81.97157216" class="line" style="--hue:238.8174"/><line x1="28.16" y1="81.97157216" x2="29.6" y2="81.9625375" class="line" style="--hue:238.53492"/><line x1="29.6" y1="81.9625375" x2="31.04" y2="81.95150336" class="line" style="--hue:238.21068"/><line x1="31.04" y1="81.95150336" x2="32.48" y2="81.93819446" class="line" style="--hue:237.8418"/><line x1="32.48" y1="81.93819446" x2="33.92" y2="81.92231776" class="line" style="--hue:237.4254"/><line x1="33.92" y1="81.92231776" x2="35.36" y2="81.90356246" class="line" style="--hue:236.9586"/><line x1="35.36" y1="81.90356246" x2="36.8" y2="81.8816" class="line" style="--hue:236.43852"/><line x1="36.8" y1="81.8816" x2="38.24" y2="81.85608406" class="line" style="--hue:235.86228"/><line x1="38.24" y1="81.85608406" x2="39.68" y2="81.82665056" class="line" style="--hue:235.227"/><line x1="39.68" y1="81.82665056" x2="41.12" y2="81.79291766" class="line" style="--hue:234.5298"/><line x1="41.12" y1="81.79291766" x2="42.56" y2="81.75448576" class="line" style="--hue:233.7678"/><line x1="42.56" y1="81.75448576" x2="44" y2="81.7109375" class="line" style="--hue:232.93812"/><line x1="44" y1="81.7109375" x2="45.44" y2="81.66183776" class="line" style="--hue:232.03788"/><line x1="45.44" y1="81.66183776" x2="46.88" y2="81.60673366" class="line" style="--hue:231.0642"/><line x1="46.88" y1="81.60673366" x2="48.32" y2="81.54515456" class="line" style="--hue:230.0142"/><line x1="48.32" y1="81.54515456" x2="49.76" y2="81.47661206" class="line" style="--hue:228.885"/><line x1="49.76" y1="81.47661206" x2="51.2" y2="81.4006" class="line" style="--hue:227.67372"/><line x1="51.2" y1="81.4006" x2="52.64" y2="81.31659446" class="line" style="--hue:226.37748"/><line x1="52.64" y1="81.31659446" x2="54.08" y2="81.22405376" class="line" style="--hue:224.9934"/><line x1="54.08" y1="81.22405376" x2="55.52" y2="81.12241846" class="line" style="--hue:223.5186"/><line x1="55.52" y1="81.12241846" x2="56.96" y2="81.01111136" class="line" style="--hue:221.9502"/><line x1="56.96" y1="81.01111136" x2="58.4" y2="80.8895375" class="line" style="--hue:220.28532"/><line x1="58.4" y1="80.8895375" x2="59.84" y2="80.75708416" class="line" style="--hue:218.52108"/><line x1="59.84" y1="80.75708416" x2="61.28" y2="80.61312086" class="line" style="--hue:216.6546"/><line x1="61.28" y1="80.61312086" x2="62.72" y2="80.45699936" class="line" style="--hue:214.683"/><line x1="62.72" y1="80.45699936" x2="64.16" y2="80.28805366" class="line" style="--hue:212.6034"/><line x1="64.16" y1="80.28805366" x2="65.6" y2="80.1056" class="line" style="--hue:210.41292"/><line x1="65.6" y1="80.1056" x2="67.04" y2="79.90893686" class="line" style="--hue:208.10868"/><line x1="67.04" y1="79.90893686" x2="68.48" y2="79.69734496" class="line" style="--hue:205.6878"/><line x1="68.48" y1="79.69734496" x2="69.92" y2="79.47008726" class="line" style="--hue:203.1474"/><line x1="69.92" y1="79.47008726" x2="71.36" y2="79.22640896" class="line" style="--hue:200.4846"/><line x1="71.36" y1="79.22640896" x2="72.8" y2="78.9655375" class="line" style="--hue:197.69652"/><line x1="72.8" y1="78.9655375" x2="74.24" y2="78.68668256" class="line" style="--hue:194.78028"/><line x1="74.24" y1="78.68668256" x2="75.68" y2="78.38903606" class="line" style="--hue:191.733"/><line x1="75.68" y1="78.38903606" x2="77.12" y2="78.07177216" class="line" style="--hue:188.5518"/><line x1="77.12" y1="78.07177216" x2="78.56" y2="77.73404726" class="line" style="--hue:185.2338"/><line x1="78.56" y1="77.73404726" x2="80" y2="77.375" class="line" style="--hue:181.77612"/><line x1="80" y1="77.375" x2="81.44" y2="76.99375126" class="line" style="--hue:178.17588"/><line x1="81.44" y1="76.99375126" x2="82.88" y2="76.58940416" class="line" style="--hue:174.4302"/><line x1="82.88" y1="76.58940416" x2="84.32" y2="76.16104406" class="line" style="--hue:170.5362"/><line x1="84.32" y1="76.16104406" x2="85.76" y2="75.70773856" class="line" style="--hue:166.491"/><line x1="85.76" y1="75.70773856" x2="87.2" y2="75.2285375" class="line" style="--hue:162.29172"/><line x1="87.2" y1="75.2285375" x2="88.64" y2="74.72247296" class="line" style="--hue:157.93548"/><line x1="88.64" y1="74.72247296" x2="90.08" y2="74.18855926" class="line" style="--hue:153.4194"/><line x1="90.08" y1="74.18855926" x2="91.52" y2="73.62579296" class="line" style="--hue:148.7406"/><line x1="91.52" y1="73.62579296" x2="92.96" y2="73.03315286" class="line" style="--hue:143.8962"/><line x1="92.96" y1="73.03315286" x2="94.4" y2="72.4096" class="line" style="--hue:138.88332"/><line x1="94.4" y1="72.4096" x2="95.84" y2="71.75407766" class="line" style="--hue:133.69908"/><line x1="95.84" y1="71.75407766" x2="97.28" y2="71.06551136" class="line" style="--hue:128.3406"/><line x1="97.28" y1="71.06551136" x2="98.72" y2="70.34280886" class="line" style="--hue:122.805"/><line x1="98.72" y1="70.34280886" x2="100.16" y2="69.58486016" class="line" style="--hue:117.0894"/><line x1="100.16" y1="69.58486016" x2="101.6" y2="68.7905375" class="line" style="--hue:111.19092"/><line x1="101.6" y1="68.7905375" x2="103.04" y2="67.95869536" class="line" style="--hue:105.10668"/><line x1="103.04" y1="67.95869536" x2="104.48" y2="67.08817046" class="line" style="--hue:98.8338"/><line x1="104.48" y1="67.08817046" x2="105.92" y2="66.17778176" class="line" style="--hue:92.3694"/><line x1="105.92" y1="66.17778176" x2="107.36" y2="65.22633046" class="line" style="--hue:85.7106"/><line x1="107.36" y1="65.22633046" x2="108.8" y2="64.2326" class="line" style="--hue:78.85452"/><line x1="108.8" y1="64.2326" x2="110.24" y2="63.19535606" class="line" style="--hue:71.79828"/><line x1="110.24" y1="63.19535606" x2="111.68" y2="62.11334656" class="line" style="--hue:64.539"/><line x1="111.68" y1="62.11334656" x2="113.12" y2="60.98530166" class="line" style="--hue:57.0738"/><line x1="113.12" y1="60.98530166" x2="114.56" y2="59.80993376" class="line" style="--hue:49.3998"/><line x1="114.56" y1="59.80993376" x2="116" y2="58.5859375" class="line" style="--hue:41.51412"/><line x1="116" y1="58.5859375" x2="117.44" y2="57.31198976" class="line" style="--hue:33.41388"/><line x1="117.44" y1="57.31198976" x2="118.88" y2="55.98674966" class="line" style="--hue:25.0962"/><line x1="118.88" y1="55.98674966" x2="120.32" y2="54.60885856" class="line" style="--hue:16.558199999999"/><line x1="120.32" y1="54.60885856" x2="121.76" y2="53.17694006" class="line" style="--hue:7.7970000000001"/><line x1="121.76" y1="53.17694006" x2="123.2" y2="51.6896" class="line" style="--hue:0"/><line x1="123.2" y1="51.6896" x2="124.64" y2="50.14542646" class="line" style="--hue:0"/><line x1="124.64" y1="50.14542646" x2="126.08" y2="48.54298976" class="line" style="--hue:0"/><line x1="126.08" y1="48.54298976" x2="127.52" y2="46.88084246" class="line" style="--hue:0"/><line x1="127.52" y1="46.88084246" x2="128.96" y2="45.15751936" class="line" style="--hue:0"/><line x1="128.96" y1="45.15751936" x2="130.4" y2="43.3715375" class="line" style="--hue:0"/><line x1="130.4" y1="43.3715375" x2="131.84" y2="41.52139616" class="line" style="--hue:0"/><line x1="131.84" y1="41.52139616" x2="133.28" y2="39.60557686" class="line" style="--hue:0"/><line x1="133.28" y1="39.60557686" x2="134.72" y2="37.62254336" class="line" style="--hue:0"/><line x1="134.72" y1="37.62254336" x2="136.16" y2="35.57074166" class="line" style="--hue:0"/><line x1="136.16" y1="35.57074166" x2="137.6" y2="33.4486" class="line" style="--hue:0"/><line x1="137.6" y1="33.4486" x2="139.04" y2="31.25452886" class="line" style="--hue:0"/><line x1="139.04" y1="31.25452886" x2="140.48" y2="28.98692096" class="line" style="--hue:0"/><line x1="140.48" y1="28.98692096" x2="141.92" y2="26.64415126" class="line" style="--hue:0"/><line x1="141.92" y1="26.64415126" x2="143.36" y2="24.22457696" class="line" style="--hue:0"/><line x1="143.36" y1="24.22457696" x2="144.8" y2="21.7265375" class="line" style="--hue:0"/><line x1="144.8" y1="21.7265375" x2="146.24" y2="19.14835456" class="line" style="--hue:0"/><line x1="146.24" y1="19.14835456" x2="147.68" y2="16.48833206" class="line" style="--hue:0"/><line x1="147.68" y1="16.48833206" x2="149.12" y2="13.74475616" class="line" style="--hue:0"/><line x1="149.12" y1="13.74475616" x2="150.56" y2="10.91589526" class="line" style="--hue:0"/><line x1="150.56" y1="10.91589526" x2="152" y2="8" class="line" style="--hue:0"/></svg>