<svg width="220" height="80" xmlns="http://www.w3.org/2000/svg" viewBox="0 0 220 80">
  <!--
  PHP Easing Functions
  Author: Simon André <smn.andre@gmail.com>
  https://github.com/smnandre/easing-functions
  Licence: MIT
  -->
  <title>PHP easeOutQuart function</title>
  <defs>
    <linearGradient id="gradient" x1="0%" y1="0%" x2="100%" y2="0%">
      <stop offset='0%' stop-color='hsl(0, 100%, 50%)'/><stop offset='2.5%' stop-color='hsl(0, 100%, 50%)'/><stop offset='5%' stop-color='hsl(0, 100%, 50%)'/><stop offset='7.5%' stop-color='hsl(0, 100%, 50%)'/><stop offset='10%' stop-color='hsl(0, 100%, 50%)'/><stop offset='12.5%' stop-color='hsl(0, 100%, 50%)'/><stop offset='15%' stop-color='hsl(0, 100%, 50%)'/><stop offset='17.5%' stop-color='hsl(0, 100%, 50%)'/><stop offset='20%' stop-color='hsl(5.5218749999997, 100%, 50%)'/><stop offset='22.5%' stop-color='hsl(27.148125, 100%, 50%)'/><stop offset='25%' stop-color='hsl(47.401875, 100%, 50%)'/><stop offset='27.5%' stop-color='hsl(66.328125, 100%, 50%)'/><stop offset='30%' stop-color='hsl(83.971875, 100%, 50%)'/><stop offset='32.5%' stop-color='hsl(100.378125, 100%, 50%)'/><stop offset='35%' stop-color='hsl(115.591875, 100%, 50%)'/><stop offset='37.5%' stop-color='hsl(129.658125, 100%, 50%)'/><stop offset='40%' stop-color='hsl(142.621875, 100%, 50%)'/><stop offset='42.5%' stop-color='hsl(154.528125, 100%, 50%)'/><stop offset='45%' stop-color='hsl(165.421875, 100%, 50%)'/><stop offset='47.5%' stop-color='hsl(175.348125, 100%, 50%)'/><stop offset='50%' stop-color='hsl(184.351875, 100%, 50%)'/><stop offset='52.5%' stop-color='hsl(192.478125, 100%, 50%)'/><stop offset='55%' stop-color='hsl(199.771875, 100%, 50%)'/><stop offset='57.5%' stop-color='hsl(206.278125, 100%, 50%)'/><stop offset='60%' stop-color='hsl(212.041875, 100%, 50%)'/><stop offset='62.5%' stop-color='hsl(217.108125, 100%, 50%)'/><stop offset='65%' stop-color='hsl(221.521875, 100%, 50%)'/><stop offset='67.5%' stop-color='hsl(225.328125, 100%, 50%)'/><stop offset='70%' stop-color='hsl(228.571875, 100%, 50%)'/><stop offset='72.5%' stop-color='hsl(231.298125, 100%, 50%)'/><stop offset='75%' stop-color='hsl(233.551875, 100%, 50%)'/><stop offset='77.5%' stop-color='hsl(235.378125, 100%, 50%)'/><stop offset='80%' stop-color='hsl(236.821875, 100%, 50%)'/><stop offset='82.5%' stop-color='hsl(237.928125, 100%, 50%)'/><stop offset='85%' stop-color='hsl(238.741875, 100%, 50%)'/><stop offset='87.5%' stop-color='hsl(239.308125, 100%, 50%)'/><stop offset='90%' stop-color='hsl(239.671875, 100%, 50%)'/><stop offset='92.5%' stop-color='hsl(239.878125, 100%, 50%)'/><stop offset='95%' stop-color='hsl(239.971875, 100%, 50%)'/><stop offset='97.5%' stop-color='hsl(239.998125, 100%, 50%)'/>
    </linearGradient>
  </defs>
  <style>
    .line {
      fill: none;
      stroke: url(#gradient);
      stroke-width: 2;
      stroke-dasharray: 217.78152306873;
      stroke-dashoffset: 217.78152306873;
      animation: draw 2s linear infinite;
    }
    @keyframes draw {
      to { stroke-dashoffset: 0; }
    }
  </style>
  <rect width="100%" height="100%" fill="black"/>
  <polyline points="10,70 15,64.221 20,58.87 25,53.926 30,49.366 35,45.171 40,41.32 45,37.795 50,34.576 55,31.645 60,28.984 65,26.577 70,24.406 75,22.456 80,20.71 85,19.155 90,17.776 95,16.559 100,15.49 105,14.558 110,13.75 115,13.054 120,12.46 125,11.958 130,11.536 135,11.187 140,10.9 145,10.669 150,10.486 155,10.343 160,10.234 165,10.154 170,10.096 175,10.056 180,10.03 185,10.015 190,10.006 195,10.002 200,10 205,10 210,10" class="line"/>
</svg>