<svg width="200" height="140" xmlns="http://www.w3.org/2000/svg">
  <style>
    .line { --hue: 0; stroke: hsl(var(--hue), 100%, 50%); }
    .line { stroke-width: 8; stroke-dasharray: 10; stroke-dashoffset: 40; animation: draw 4s infinite; }
    @keyframes draw {
      to {
        stroke-dashoffset: 0;
      }
    }
  </style>
<rect width="100%" height="100%" fill="white"/><line x1="10" y1="130" x2="11.8" y2="126.43588" class="line" style="--hue:0"/><line x1="11.8" y1="126.43588" x2="13.6" y2="122.94304" class="line" style="--hue:0"/><line x1="13.6" y1="122.94304" x2="15.4" y2="119.52076" class="line" style="--hue:0"/><line x1="15.4" y1="119.52076" x2="17.2" y2="116.16832" class="line" style="--hue:0"/><line x1="17.2" y1="116.16832" x2="19" y2="112.885" class="line" style="--hue:0"/><line x1="19" y1="112.885" x2="20.8" y2="109.67008" class="line" style="--hue:0"/><line x1="20.8" y1="109.67008" x2="22.6" y2="106.52284" class="line" style="--hue:0"/><line x1="22.6" y1="106.52284" x2="24.4" y2="103.44256" class="line" style="--hue:0"/><line x1="24.4" y1="103.44256" x2="26.2" y2="100.42852" class="line" style="--hue:0"/><line x1="26.2" y1="100.42852" x2="28" y2="97.48" class="line" style="--hue:0"/><line x1="28" y1="97.48" x2="29.8" y2="94.59628" class="line" style="--hue:0"/><line x1="29.8" y1="94.59628" x2="31.6" y2="91.77664" class="line" style="--hue:0"/><line x1="31.6" y1="91.77664" x2="33.4" y2="89.02036" class="line" style="--hue:0"/><line x1="33.4" y1="89.02036" x2="35.2" y2="86.32672" class="line" style="--hue:0"/><line x1="35.2" y1="86.32672" x2="37" y2="83.695" class="line" style="--hue:0"/><line x1="37" y1="83.695" x2="38.8" y2="81.12448" class="line" style="--hue:0"/><line x1="38.8" y1="81.12448" x2="40.6" y2="78.61444" class="line" style="--hue:0"/><line x1="40.6" y1="78.61444" x2="42.4" y2="76.16416" class="line" style="--hue:0"/><line x1="42.4" y1="76.16416" x2="44.2" y2="73.77292" class="line" style="--hue:0.87599999999986"/><line x1="44.2" y1="73.77292" x2="46" y2="71.44" class="line" style="--hue:6.7080000000011"/><line x1="46" y1="71.44" x2="47.8" y2="69.16468" class="line" style="--hue:12.467999999998"/><line x1="47.8" y1="69.16468" x2="49.6" y2="66.94624" class="line" style="--hue:18.156000000001"/><line x1="49.6" y1="66.94624" x2="51.4" y2="64.78396" class="line" style="--hue:23.772"/><line x1="51.4" y1="64.78396" x2="53.2" y2="62.67712" class="line" style="--hue:29.315999999999"/><line x1="53.2" y1="62.67712" x2="55" y2="60.625" class="line" style="--hue:34.788"/><line x1="55" y1="60.625" x2="56.8" y2="58.62688" class="line" style="--hue:40.188000000001"/><line x1="56.8" y1="58.62688" x2="58.6" y2="56.68204" class="line" style="--hue:45.515999999999"/><line x1="58.6" y1="56.68204" x2="60.4" y2="54.78976" class="line" style="--hue:50.772000000001"/><line x1="60.4" y1="54.78976" x2="62.2" y2="52.94932" class="line" style="--hue:55.955999999997"/><line x1="62.2" y1="52.94932" x2="64" y2="51.16" class="line" style="--hue:61.068000000001"/><line x1="64" y1="51.16" x2="65.8" y2="49.42108" class="line" style="--hue:66.108"/><line x1="65.8" y1="49.42108" x2="67.6" y2="47.73184" class="line" style="--hue:71.076"/><line x1="67.6" y1="47.73184" x2="69.4" y2="46.09156" class="line" style="--hue:75.972"/><line x1="69.4" y1="46.09156" x2="71.2" y2="44.49952" class="line" style="--hue:80.796000000001"/><line x1="71.2" y1="44.49952" x2="73" y2="42.955" class="line" style="--hue:85.548"/><line x1="73" y1="42.955" x2="74.8" y2="41.45728" class="line" style="--hue:90.228000000001"/><line x1="74.8" y1="41.45728" x2="76.6" y2="40.00564" class="line" style="--hue:94.836"/><line x1="76.6" y1="40.00564" x2="78.4" y2="38.59936" class="line" style="--hue:99.372"/><line x1="78.4" y1="38.59936" x2="80.2" y2="37.23772" class="line" style="--hue:103.836"/><line x1="80.2" y1="37.23772" x2="82" y2="35.92" class="line" style="--hue:108.228"/><line x1="82" y1="35.92" x2="83.8" y2="34.64548" class="line" style="--hue:112.548"/><line x1="83.8" y1="34.64548" x2="85.6" y2="33.41344" class="line" style="--hue:116.796"/><line x1="85.6" y1="33.41344" x2="87.4" y2="32.22316" class="line" style="--hue:120.972"/><line x1="87.4" y1="32.22316" x2="89.2" y2="31.07392" class="line" style="--hue:125.076"/><line x1="89.2" y1="31.07392" x2="91" y2="29.965" class="line" style="--hue:129.108"/><line x1="91" y1="29.965" x2="92.8" y2="28.89568" class="line" style="--hue:133.068"/><line x1="92.8" y1="28.89568" x2="94.6" y2="27.86524" class="line" style="--hue:136.956"/><line x1="94.6" y1="27.86524" x2="96.4" y2="26.87296" class="line" style="--hue:140.772"/><line x1="96.4" y1="26.87296" x2="98.2" y2="25.91812" class="line" style="--hue:144.516"/><line x1="98.2" y1="25.91812" x2="100" y2="25" class="line" style="--hue:148.188"/><line x1="100" y1="25" x2="101.8" y2="24.11788" class="line" style="--hue:151.788"/><line x1="101.8" y1="24.11788" x2="103.6" y2="23.27104" class="line" style="--hue:155.316"/><line x1="103.6" y1="23.27104" x2="105.4" y2="22.45876" class="line" style="--hue:158.772"/><line x1="105.4" y1="22.45876" x2="107.2" y2="21.68032" class="line" style="--hue:162.156"/><line x1="107.2" y1="21.68032" x2="109" y2="20.935" class="line" style="--hue:165.468"/><line x1="109" y1="20.935" x2="110.8" y2="20.22208" class="line" style="--hue:168.708"/><line x1="110.8" y1="20.22208" x2="112.6" y2="19.54084" class="line" style="--hue:171.876"/><line x1="112.6" y1="19.54084" x2="114.4" y2="18.89056" class="line" style="--hue:174.972"/><line x1="114.4" y1="18.89056" x2="116.2" y2="18.27052" class="line" style="--hue:177.996"/><line x1="116.2" y1="18.27052" x2="118" y2="17.68" class="line" style="--hue:180.948"/><line x1="118" y1="17.68" x2="119.8" y2="17.11828" class="line" style="--hue:183.828"/><line x1="119.8" y1="17.11828" x2="121.6" y2="16.58464" class="line" style="--hue:186.636"/><line x1="121.6" y1="16.58464" x2="123.4" y2="16.07836" class="line" style="--hue:189.372"/><line x1="123.4" y1="16.07836" x2="125.2" y2="15.59872" class="line" style="--hue:192.036"/><line x1="125.2" y1="15.59872" x2="127" y2="15.145" class="line" style="--hue:194.628"/><line x1="127" y1="15.145" x2="128.8" y2="14.71648" class="line" style="--hue:197.148"/><line x1="128.8" y1="14.71648" x2="130.6" y2="14.31244" class="line" style="--hue:199.596"/><line x1="130.6" y1="14.31244" x2="132.4" y2="13.93216" class="line" style="--hue:201.972"/><line x1="132.4" y1="13.93216" x2="134.2" y2="13.57492" class="line" style="--hue:204.276"/><line x1="134.2" y1="13.57492" x2="136" y2="13.24" class="line" style="--hue:206.508"/><line x1="136" y1="13.24" x2="137.8" y2="12.92668" class="line" style="--hue:208.668"/><line x1="137.8" y1="12.92668" x2="139.6" y2="12.63424" class="line" style="--hue:210.756"/><line x1="139.6" y1="12.63424" x2="141.4" y2="12.36196" class="line" style="--hue:212.772"/><line x1="141.4" y1="12.36196" x2="143.2" y2="12.10912" class="line" style="--hue:214.716"/><line x1="143.2" y1="12.10912" x2="145" y2="11.875" class="line" style="--hue:216.588"/><line x1="145" y1="11.875" x2="146.8" y2="11.65888" class="line" style="--hue:218.388"/><line x1="146.8" y1="11.65888" x2="148.6" y2="11.46004" class="line" style="--hue:220.116"/><line x1="148.6" y1="11.46004" x2="150.4" y2="11.27776" class="line" style="--hue:221.772"/><line x1="150.4" y1="11.27776" x2="152.2" y2="11.11132" class="line" style="--hue:223.356"/><line x1="152.2" y1="11.11132" x2="154" y2="10.96" class="line" style="--hue:224.868"/><line x1="154" y1="10.96" x2="155.8" y2="10.82308" class="line" style="--hue:226.308"/><line x1="155.8" y1="10.82308" x2="157.6" y2="10.69984" class="line" style="--hue:227.676"/><line x1="157.6" y1="10.69984" x2="159.4" y2="10.58956" class="line" style="--hue:228.972"/><line x1="159.4" y1="10.58956" x2="161.2" y2="10.49152" class="line" style="--hue:230.196"/><line x1="161.2" y1="10.49152" x2="163" y2="10.405" class="line" style="--hue:231.348"/><line x1="163" y1="10.405" x2="164.8" y2="10.32928" class="line" style="--hue:232.428"/><line x1="164.8" y1="10.32928" x2="166.6" y2="10.26364" class="line" style="--hue:233.436"/><line x1="166.6" y1="10.26364" x2="168.4" y2="10.20736" class="line" style="--hue:234.372"/><line x1="168.4" y1="10.20736" x2="170.2" y2="10.15972" class="line" style="--hue:235.236"/><line x1="170.2" y1="10.15972" x2="172" y2="10.12" class="line" style="--hue:236.028"/><line x1="172" y1="10.12" x2="173.8" y2="10.08748" class="line" style="--hue:236.748"/><line x1="173.8" y1="10.08748" x2="175.6" y2="10.06144" class="line" style="--hue:237.396"/><line x1="175.6" y1="10.06144" x2="177.4" y2="10.04116" class="line" style="--hue:237.972"/><line x1="177.4" y1="10.04116" x2="179.2" y2="10.02592" class="line" style="--hue:238.476"/><line x1="179.2" y1="10.02592" x2="181" y2="10.015" class="line" style="--hue:238.908"/><line x1="181" y1="10.015" x2="182.8" y2="10.00768" class="line" style="--hue:239.268"/><line x1="182.8" y1="10.00768" x2="184.6" y2="10.00324" class="line" style="--hue:239.556"/><line x1="184.6" y1="10.00324" x2="186.4" y2="10.00096" class="line" style="--hue:239.772"/><line x1="186.4" y1="10.00096" x2="188.2" y2="10.00012" class="line" style="--hue:239.916"/><line x1="188.2" y1="10.00012" x2="190" y2="10" class="line" style="--hue:239.988"/></svg>
