<svg width="100" height="70" xmlns="http://www.w3.org/2000/svg"><polyline fill="none" stroke="#999" stroke-width="4" stroke-linecap="round" points="5,65 5.9,64.988 6.8,64.952 7.7,64.892 8.6,64.808 9.5,64.7 10.4,64.568 11.3,64.412 12.2,64.232 13.1,64.028 14,63.8 14.9,63.548 15.8,63.272 16.7,62.972 17.6,62.648 18.5,62.3 19.4,61.928 20.3,61.532 21.2,61.112 22.1,60.668 23,60.2 23.9,59.708 24.8,59.192 25.7,58.652 26.6,58.088 27.5,57.5 28.4,56.888 29.3,56.252 30.2,55.592 31.1,54.908 32,54.2 32.9,53.468 33.8,52.712 34.7,51.932 35.6,51.128 36.5,50.3 37.4,49.448 38.3,48.572 39.2,47.672 40.1,46.748 41,45.8 41.9,44.828 42.8,43.832 43.7,42.812 44.6,41.768 45.5,40.7 46.4,39.608 47.3,38.492 48.2,37.352 49.1,36.188 50,35 50.9,33.812 51.8,32.648 52.7,31.508 53.6,30.392 54.5,29.3 55.4,28.232 56.3,27.188 57.2,26.168 58.1,25.172 59,24.2 59.9,23.252 60.8,22.328 61.7,21.428 62.6,20.552 63.5,19.7 64.4,18.872 65.3,18.068 66.2,17.288 67.1,16.532 68,15.8 68.9,15.092 69.8,14.408 70.7,13.748 71.6,13.112 72.5,12.5 73.4,11.912 74.3,11.348 75.2,10.808 76.1,10.292 77,9.8 77.9,9.332 78.8,8.888 79.7,8.468 80.6,8.072 81.5,7.7 82.4,7.352 83.3,7.028 84.2,6.728 85.1,6.452 86,6.2 86.9,5.972 87.8,5.768 88.7,5.588 89.6,5.432 90.5,5.3 91.4,5.192 92.3,5.108 93.2,5.048 94.1,5.012 95,5 "/>
</svg>