<svg width="160" height="60" xmlns="http://www.w3.org/2000/svg" viewBox="0 0 160 60">
  <!--
  PHP Easing Functions
  Author: Simon André <smn.andre@gmail.com>
  https://github.com/smnandre/easing-functions
  Licence: MIT
  -->
  <title>PHP easeIn Quart function</title>
  <polyline fill="none" stroke="#9d9b9e" stroke-width="3" stroke-linecap="round" points="10,50 14.667,50 19.333,49.999 24,49.996 28.667,49.987 33.333,49.969 38,49.936 42.667,49.881 47.333,49.798 52,49.676 56.667,49.506 61.333,49.277 66,48.976 70.667,48.59 75.333,48.103 80,47.5 84.667,46.764 89.333,45.876 94,44.816 98.667,43.564 103.333,42.099 108,40.396 112.667,38.432 117.333,36.181 122,33.616 126.667,30.71 131.333,27.433 136,23.756 140.667,19.647 145.333,15.073 150,10 "/>
</svg>