<svg width="100" height="70" xmlns="http://www.w3.org/2000/svg"><polyline fill="none" stroke="#999" stroke-width="4" stroke-linecap="round" points="5,65 5.9,64.9999952 6.8,64.9999232 7.7,64.9996112 8.6,64.9987712 9.5,64.997 10.4,64.9937792 11.3,64.9884752 12.2,64.9803392 13.1,64.9685072 14,64.952 14.9,64.9297232 15.8,64.9004672 16.7,64.8629072 17.6,64.8156032 18.5,64.757 19.4,64.6854272 20.3,64.5990992 21.2,64.4961152 22.1,64.3744592 23,64.232 23.9,64.0664912 24.8,63.8755712 25.7,63.6567632 26.6,63.4074752 27.5,63.125 28.4,62.8065152 29.3,62.4490832 30.2,62.0496512 31.1,61.6050512 32,61.112 32.9,60.5670992 33.8,59.9668352 34.7,59.3075792 35.6,58.5855872 36.5,57.797 37.4,56.9378432 38.3,56.0040272 39.2,54.9913472 40.1,53.8954832 41,52.712 41.9,51.4363472 42.8,50.0638592 43.7,48.5897552 44.6,47.0091392 45.5,45.317 46.4,43.5082112 47.3,41.5775312 48.2,39.5196032 49.1,37.3289552 50,35 50.9,32.6710448 51.8,30.4803968 52.7,28.4224688 53.6,26.4917888 54.5,24.683 55.4,22.9908608 56.3,21.4102448 57.2,19.9361408 58.1,18.5636528 59,17.288 59.9,16.1045168 60.8,15.0086528 61.7,13.9959728 62.6,13.0621568 63.5,12.203 64.4,11.4144128 65.3,10.6924208 66.2,10.0331648 67.1,9.4329008 68,8.888 68.9,8.3949488 69.8,7.9503488 70.7,7.5509168 71.6,7.1934848 72.5,6.875 73.4,6.5925248 74.3,6.3432368 75.2,6.1244288 76.1,5.9335088 77,5.768 77.9,5.6255408 78.8,5.5038848 79.7,5.4009008 80.6,5.3145728 81.5,5.243 82.4,5.1843968 83.3,5.1370928 84.2,5.0995328 85.1,5.0702768 86,5.048 86.9,5.0314928 87.8,5.0196608 88.7,5.0115248 89.6,5.0062208 90.5,5.003 91.4,5.0012288 92.3,5.0003888 93.2,5.0000768 94.1,5.0000048 95,5 "/>
</svg>