<svg width="160" height="90" xmlns="http://www.w3.org/2000/svg">
  <style>
    .line { stroke-width: 4; stroke-dasharray: 171.53307856878; stroke-dashoffset: 171.53307856878; animation: draw 3s infinite; }
    @keyframes draw {
      to {
        stroke-dashoffset: 0;
      }
    }
    .line { --hue: 0; stroke: hsl(var(--hue), 100%, 50%); }
  </style><rect width="100%" height="100%" fill="#000"/><line x1="8" y1="82" x2="9.44" y2="81.999926" class="line" style="--hue:239.988"/><line x1="9.44" y1="81.999926" x2="10.88" y2="81.999408" class="line" style="--hue:239.916"/><line x1="10.88" y1="81.999408" x2="12.32" y2="81.998002" class="line" style="--hue:239.772"/><line x1="12.32" y1="81.998002" x2="13.76" y2="81.995264" class="line" style="--hue:239.556"/><line x1="13.76" y1="81.995264" x2="15.2" y2="81.99075" class="line" style="--hue:239.268"/><line x1="15.2" y1="81.99075" x2="16.64" y2="81.984016" class="line" style="--hue:238.908"/><line x1="16.64" y1="81.984016" x2="18.08" y2="81.974618" class="line" style="--hue:238.476"/><line x1="18.08" y1="81.974618" x2="19.52" y2="81.962112" class="line" style="--hue:237.972"/><line x1="19.52" y1="81.962112" x2="20.96" y2="81.946054" class="line" style="--hue:237.396"/><line x1="20.96" y1="81.946054" x2="22.4" y2="81.926" class="line" style="--hue:236.748"/><line x1="22.4" y1="81.926" x2="23.84" y2="81.901506" class="line" style="--hue:236.028"/><line x1="23.84" y1="81.901506" x2="25.28" y2="81.872128" class="line" style="--hue:235.236"/><line x1="25.28" y1="81.872128" x2="26.72" y2="81.837422" class="line" style="--hue:234.372"/><line x1="26.72" y1="81.837422" x2="28.16" y2="81.796944" class="line" style="--hue:233.436"/><line x1="28.16" y1="81.796944" x2="29.6" y2="81.75025" class="line" style="--hue:232.428"/><line x1="29.6" y1="81.75025" x2="31.04" y2="81.696896" class="line" style="--hue:231.348"/><line x1="31.04" y1="81.696896" x2="32.48" y2="81.636438" class="line" style="--hue:230.196"/><line x1="32.48" y1="81.636438" x2="33.92" y2="81.568432" class="line" style="--hue:228.972"/><line x1="33.92" y1="81.568432" x2="35.36" y2="81.492434" class="line" style="--hue:227.676"/><line x1="35.36" y1="81.492434" x2="36.8" y2="81.408" class="line" style="--hue:226.308"/><line x1="36.8" y1="81.408" x2="38.24" y2="81.314686" class="line" style="--hue:224.868"/><line x1="38.24" y1="81.314686" x2="39.68" y2="81.212048" class="line" style="--hue:223.356"/><line x1="39.68" y1="81.212048" x2="41.12" y2="81.099642" class="line" style="--hue:221.772"/><line x1="41.12" y1="81.099642" x2="42.56" y2="80.977024" class="line" style="--hue:220.116"/><line x1="42.56" y1="80.977024" x2="44" y2="80.84375" class="line" style="--hue:218.388"/><line x1="44" y1="80.84375" x2="45.44" y2="80.699376" class="line" style="--hue:216.588"/><line x1="45.44" y1="80.699376" x2="46.88" y2="80.543458" class="line" style="--hue:214.716"/><line x1="46.88" y1="80.543458" x2="48.32" y2="80.375552" class="line" style="--hue:212.772"/><line x1="48.32" y1="80.375552" x2="49.76" y2="80.195214" class="line" style="--hue:210.756"/><line x1="49.76" y1="80.195214" x2="51.2" y2="80.002" class="line" style="--hue:208.668"/><line x1="51.2" y1="80.002" x2="52.64" y2="79.795466" class="line" style="--hue:206.508"/><line x1="52.64" y1="79.795466" x2="54.08" y2="79.575168" class="line" style="--hue:204.276"/><line x1="54.08" y1="79.575168" x2="55.52" y2="79.340662" class="line" style="--hue:201.972"/><line x1="55.52" y1="79.340662" x2="56.96" y2="79.091504" class="line" style="--hue:199.596"/><line x1="56.96" y1="79.091504" x2="58.4" y2="78.82725" class="line" style="--hue:197.148"/><line x1="58.4" y1="78.82725" x2="59.84" y2="78.547456" class="line" style="--hue:194.628"/><line x1="59.84" y1="78.547456" x2="61.28" y2="78.251678" class="line" style="--hue:192.036"/><line x1="61.28" y1="78.251678" x2="62.72" y2="77.939472" class="line" style="--hue:189.372"/><line x1="62.72" y1="77.939472" x2="64.16" y2="77.610394" class="line" style="--hue:186.636"/><line x1="64.16" y1="77.610394" x2="65.6" y2="77.264" class="line" style="--hue:183.828"/><line x1="65.6" y1="77.264" x2="67.04" y2="76.899846" class="line" style="--hue:180.948"/><line x1="67.04" y1="76.899846" x2="68.48" y2="76.517488" class="line" style="--hue:177.996"/><line x1="68.48" y1="76.517488" x2="69.92" y2="76.116482" class="line" style="--hue:174.972"/><line x1="69.92" y1="76.116482" x2="71.36" y2="75.696384" class="line" style="--hue:171.876"/><line x1="71.36" y1="75.696384" x2="72.8" y2="75.25675" class="line" style="--hue:168.708"/><line x1="72.8" y1="75.25675" x2="74.24" y2="74.797136" class="line" style="--hue:165.468"/><line x1="74.24" y1="74.797136" x2="75.68" y2="74.317098" class="line" style="--hue:162.156"/><line x1="75.68" y1="74.317098" x2="77.12" y2="73.816192" class="line" style="--hue:158.772"/><line x1="77.12" y1="73.816192" x2="78.56" y2="73.293974" class="line" style="--hue:155.316"/><line x1="78.56" y1="73.293974" x2="80" y2="72.75" class="line" style="--hue:151.788"/><line x1="80" y1="72.75" x2="81.44" y2="72.183826" class="line" style="--hue:148.188"/><line x1="81.44" y1="72.183826" x2="82.88" y2="71.595008" class="line" style="--hue:144.516"/><line x1="82.88" y1="71.595008" x2="84.32" y2="70.983102" class="line" style="--hue:140.772"/><line x1="84.32" y1="70.983102" x2="85.76" y2="70.347664" class="line" style="--hue:136.956"/><line x1="85.76" y1="70.347664" x2="87.2" y2="69.68825" class="line" style="--hue:133.068"/><line x1="87.2" y1="69.68825" x2="88.64" y2="69.004416" class="line" style="--hue:129.108"/><line x1="88.64" y1="69.004416" x2="90.08" y2="68.295718" class="line" style="--hue:125.076"/><line x1="90.08" y1="68.295718" x2="91.52" y2="67.561712" class="line" style="--hue:120.972"/><line x1="91.52" y1="67.561712" x2="92.96" y2="66.801954" class="line" style="--hue:116.796"/><line x1="92.96" y1="66.801954" x2="94.4" y2="66.016" class="line" style="--hue:112.548"/><line x1="94.4" y1="66.016" x2="95.84" y2="65.203406" class="line" style="--hue:108.228"/><line x1="95.84" y1="65.203406" x2="97.28" y2="64.363728" class="line" style="--hue:103.836"/><line x1="97.28" y1="64.363728" x2="98.72" y2="63.496522" class="line" style="--hue:99.372"/><line x1="98.72" y1="63.496522" x2="100.16" y2="62.601344" class="line" style="--hue:94.836"/><line x1="100.16" y1="62.601344" x2="101.6" y2="61.67775" class="line" style="--hue:90.228000000001"/><line x1="101.6" y1="61.67775" x2="103.04" y2="60.725296" class="line" style="--hue:85.548"/><line x1="103.04" y1="60.725296" x2="104.48" y2="59.743538" class="line" style="--hue:80.796"/><line x1="104.48" y1="59.743538" x2="105.92" y2="58.732032" class="line" style="--hue:75.972"/><line x1="105.92" y1="58.732032" x2="107.36" y2="57.690334" class="line" style="--hue:71.076"/><line x1="107.36" y1="57.690334" x2="108.8" y2="56.618" class="line" style="--hue:66.108"/><line x1="108.8" y1="56.618" x2="110.24" y2="55.514586" class="line" style="--hue:61.068"/><line x1="110.24" y1="55.514586" x2="111.68" y2="54.379648" class="line" style="--hue:55.956"/><line x1="111.68" y1="54.379648" x2="113.12" y2="53.212742" class="line" style="--hue:50.772"/><line x1="113.12" y1="53.212742" x2="114.56" y2="52.013424" class="line" style="--hue:45.516"/><line x1="114.56" y1="52.013424" x2="116" y2="50.78125" class="line" style="--hue:40.188"/><line x1="116" y1="50.78125" x2="117.44" y2="49.515776" class="line" style="--hue:34.788"/><line x1="117.44" y1="49.515776" x2="118.88" y2="48.216558" class="line" style="--hue:29.316"/><line x1="118.88" y1="48.216558" x2="120.32" y2="46.883152" class="line" style="--hue:23.772"/><line x1="120.32" y1="46.883152" x2="121.76" y2="45.515114" class="line" style="--hue:18.156"/><line x1="121.76" y1="45.515114" x2="123.2" y2="44.112" class="line" style="--hue:12.467999999999"/><line x1="123.2" y1="44.112" x2="124.64" y2="42.673366" class="line" style="--hue:6.7080000000011"/><line x1="124.64" y1="42.673366" x2="126.08" y2="41.198768" class="line" style="--hue:0.87599999999986"/><line x1="126.08" y1="41.198768" x2="127.52" y2="39.687762" class="line" style="--hue:0"/><line x1="127.52" y1="39.687762" x2="128.96" y2="38.139904" class="line" style="--hue:0"/><line x1="128.96" y1="38.139904" x2="130.4" y2="36.55475" class="line" style="--hue:0"/><line x1="130.4" y1="36.55475" x2="131.84" y2="34.931856" class="line" style="--hue:0"/><line x1="131.84" y1="34.931856" x2="133.28" y2="33.270778" class="line" style="--hue:0"/><line x1="133.28" y1="33.270778" x2="134.72" y2="31.571072" class="line" style="--hue:0"/><line x1="134.72" y1="31.571072" x2="136.16" y2="29.832294" class="line" style="--hue:0"/><line x1="136.16" y1="29.832294" x2="137.6" y2="28.054" class="line" style="--hue:0"/><line x1="137.6" y1="28.054" x2="139.04" y2="26.235746" class="line" style="--hue:0"/><line x1="139.04" y1="26.235746" x2="140.48" y2="24.377088" class="line" style="--hue:0"/><line x1="140.48" y1="24.377088" x2="141.92" y2="22.477582" class="line" style="--hue:0"/><line x1="141.92" y1="22.477582" x2="143.36" y2="20.536784" class="line" style="--hue:0"/><line x1="143.36" y1="20.536784" x2="144.8" y2="18.55425" class="line" style="--hue:0"/><line x1="144.8" y1="18.55425" x2="146.24" y2="16.529536" class="line" style="--hue:0"/><line x1="146.24" y1="16.529536" x2="147.68" y2="14.462198" class="line" style="--hue:0"/><line x1="147.68" y1="14.462198" x2="149.12" y2="12.351792" class="line" style="--hue:0"/><line x1="149.12" y1="12.351792" x2="150.56" y2="10.197874" class="line" style="--hue:0"/><line x1="150.56" y1="10.197874" x2="152" y2="8" class="line" style="--hue:0"/></svg>