<svg width="160" height="90" xmlns="http://www.w3.org/2000/svg">
  <style>
    .line { stroke-width: 4; stroke-dasharray: 175.82588456225; stroke-dashoffset: 175.82588456225; animation: draw 3s infinite; }
    @keyframes draw {
      to {
        stroke-dashoffset: 0;
      }
    }
    .line { --hue: 0; stroke: hsl(var(--hue), 100%, 50%); }
  </style><rect width="100%" height="100%" fill="#000"/><line x1="8" y1="82" x2="9.44" y2="81.99999408" class="line" style="--hue:239.99904"/><line x1="9.44" y1="81.99999408" x2="10.88" y2="81.99990528" class="line" style="--hue:239.9856"/><line x1="10.88" y1="81.99990528" x2="12.32" y2="81.99952048" class="line" style="--hue:239.9376"/><line x1="12.32" y1="81.99952048" x2="13.76" y2="81.99848448" class="line" style="--hue:239.832"/><line x1="13.76" y1="81.99848448" x2="15.2" y2="81.9963" class="line" style="--hue:239.64576"/><line x1="15.2" y1="81.9963" x2="16.64" y2="81.99232768" class="line" style="--hue:239.35584"/><line x1="16.64" y1="81.99232768" x2="18.08" y2="81.98578608" class="line" style="--hue:238.9392"/><line x1="18.08" y1="81.98578608" x2="19.52" y2="81.97575168" class="line" style="--hue:238.3728"/><line x1="19.52" y1="81.97575168" x2="20.96" y2="81.96115888" class="line" style="--hue:237.6336"/><line x1="20.96" y1="81.96115888" x2="22.4" y2="81.9408" class="line" style="--hue:236.69856"/><line x1="22.4" y1="81.9408" x2="23.84" y2="81.91332528" class="line" style="--hue:235.54464"/><line x1="23.84" y1="81.91332528" x2="25.28" y2="81.87724288" class="line" style="--hue:234.1488"/><line x1="25.28" y1="81.87724288" x2="26.72" y2="81.83091888" class="line" style="--hue:232.488"/><line x1="26.72" y1="81.83091888" x2="28.16" y2="81.77257728" class="line" style="--hue:230.5392"/><line x1="28.16" y1="81.77257728" x2="29.6" y2="81.7003" class="line" style="--hue:228.27936"/><line x1="29.6" y1="81.7003" x2="31.04" y2="81.61202688" class="line" style="--hue:225.68544"/><line x1="31.04" y1="81.61202688" x2="32.48" y2="81.50555568" class="line" style="--hue:222.7344"/><line x1="32.48" y1="81.50555568" x2="33.92" y2="81.37854208" class="line" style="--hue:219.4032"/><line x1="33.92" y1="81.37854208" x2="35.36" y2="81.22849968" class="line" style="--hue:215.6688"/><line x1="35.36" y1="81.22849968" x2="36.8" y2="81.0528" class="line" style="--hue:211.50816"/><line x1="36.8" y1="81.0528" x2="38.24" y2="80.84867248" class="line" style="--hue:206.89824"/><line x1="38.24" y1="80.84867248" x2="39.68" y2="80.61320448" class="line" style="--hue:201.816"/><line x1="39.68" y1="80.61320448" x2="41.12" y2="80.34334128" class="line" style="--hue:196.2384"/><line x1="41.12" y1="80.34334128" x2="42.56" y2="80.03588608" class="line" style="--hue:190.1424"/><line x1="42.56" y1="80.03588608" x2="44" y2="79.6875" class="line" style="--hue:183.50496"/><line x1="44" y1="79.6875" x2="45.44" y2="79.29470208" class="line" style="--hue:176.30304"/><line x1="45.44" y1="79.29470208" x2="46.88" y2="78.85386928" class="line" style="--hue:168.5136"/><line x1="46.88" y1="78.85386928" x2="48.32" y2="78.36123648" class="line" style="--hue:160.1136"/><line x1="48.32" y1="78.36123648" x2="49.76" y2="77.81289648" class="line" style="--hue:151.08"/><line x1="49.76" y1="77.81289648" x2="51.2" y2="77.2048" class="line" style="--hue:141.38976"/><line x1="51.2" y1="77.2048" x2="52.64" y2="76.53275568" class="line" style="--hue:131.01984"/><line x1="52.64" y1="76.53275568" x2="54.08" y2="75.79243008" class="line" style="--hue:119.9472"/><line x1="54.08" y1="75.79243008" x2="55.52" y2="74.97934768" class="line" style="--hue:108.1488"/><line x1="55.52" y1="74.97934768" x2="56.96" y2="74.08889088" class="line" style="--hue:95.6016"/><line x1="56.96" y1="74.08889088" x2="58.4" y2="73.1163" class="line" style="--hue:82.28256"/><line x1="58.4" y1="73.1163" x2="59.84" y2="72.05667328" class="line" style="--hue:68.16864"/><line x1="59.84" y1="72.05667328" x2="61.28" y2="70.90496688" class="line" style="--hue:53.2368"/><line x1="61.28" y1="70.90496688" x2="62.72" y2="69.65599488" class="line" style="--hue:37.464"/><line x1="62.72" y1="69.65599488" x2="64.16" y2="68.30442928" class="line" style="--hue:20.8272"/><line x1="64.16" y1="68.30442928" x2="65.6" y2="66.8448" class="line" style="--hue:3.3033600000002"/><line x1="65.6" y1="66.8448" x2="67.04" y2="65.27149488" class="line" style="--hue:0"/><line x1="67.04" y1="65.27149488" x2="68.48" y2="63.57875968" class="line" style="--hue:0"/><line x1="68.48" y1="63.57875968" x2="69.92" y2="61.76069808" class="line" style="--hue:0"/><line x1="69.92" y1="61.76069808" x2="71.36" y2="59.81127168" class="line" style="--hue:0"/><line x1="71.36" y1="59.81127168" x2="72.8" y2="57.7243" class="line" style="--hue:0"/><line x1="72.8" y1="57.7243" x2="74.24" y2="55.49346048" class="line" style="--hue:0"/><line x1="74.24" y1="55.49346048" x2="75.68" y2="53.11228848" class="line" style="--hue:0"/><line x1="75.68" y1="53.11228848" x2="77.12" y2="50.57417728" class="line" style="--hue:0"/><line x1="77.12" y1="50.57417728" x2="78.56" y2="47.87237808" class="line" style="--hue:0"/><line x1="78.56" y1="47.87237808" x2="80" y2="45" class="line" style="--hue:0"/><line x1="80" y1="45" x2="81.44" y2="42.12762192" class="line" style="--hue:0"/><line x1="81.44" y1="42.12762192" x2="82.88" y2="39.42582272" class="line" style="--hue:0"/><line x1="82.88" y1="39.42582272" x2="84.32" y2="36.88771152" class="line" style="--hue:0"/><line x1="84.32" y1="36.88771152" x2="85.76" y2="34.50653952" class="line" style="--hue:0"/><line x1="85.76" y1="34.50653952" x2="87.2" y2="32.2757" class="line" style="--hue:0"/><line x1="87.2" y1="32.2757" x2="88.64" y2="30.18872832" class="line" style="--hue:0"/><line x1="88.64" y1="30.18872832" x2="90.08" y2="28.23930192" class="line" style="--hue:0"/><line x1="90.08" y1="28.23930192" x2="91.52" y2="26.42124032" class="line" style="--hue:0"/><line x1="91.52" y1="26.42124032" x2="92.96" y2="24.72850512" class="line" style="--hue:0"/><line x1="92.96" y1="24.72850512" x2="94.4" y2="23.1552" class="line" style="--hue:0"/><line x1="94.4" y1="23.1552" x2="95.84" y2="21.69557072" class="line" style="--hue:3.3033599999999"/><line x1="95.84" y1="21.69557072" x2="97.28" y2="20.34400512" class="line" style="--hue:20.827199999999"/><line x1="97.28" y1="20.34400512" x2="98.72" y2="19.09503312" class="line" style="--hue:37.463999999999"/><line x1="98.72" y1="19.09503312" x2="100.16" y2="17.94332672" class="line" style="--hue:53.236800000001"/><line x1="100.16" y1="17.94332672" x2="101.6" y2="16.8837" class="line" style="--hue:68.16864"/><line x1="101.6" y1="16.8837" x2="103.04" y2="15.91110912" class="line" style="--hue:82.282559999999"/><line x1="103.04" y1="15.91110912" x2="104.48" y2="15.02065232" class="line" style="--hue:95.601600000001"/><line x1="104.48" y1="15.02065232" x2="105.92" y2="14.20756992" class="line" style="--hue:108.1488"/><line x1="105.92" y1="14.20756992" x2="107.36" y2="13.46724432" class="line" style="--hue:119.9472"/><line x1="107.36" y1="13.46724432" x2="108.8" y2="12.7952" class="line" style="--hue:131.01984"/><line x1="108.8" y1="12.7952" x2="110.24" y2="12.18710352" class="line" style="--hue:141.38976"/><line x1="110.24" y1="12.18710352" x2="111.68" y2="11.63876352" class="line" style="--hue:151.08"/><line x1="111.68" y1="11.63876352" x2="113.12" y2="11.14613072" class="line" style="--hue:160.1136"/><line x1="113.12" y1="11.14613072" x2="114.56" y2="10.70529792" class="line" style="--hue:168.5136"/><line x1="114.56" y1="10.70529792" x2="116" y2="10.3125" class="line" style="--hue:176.30304"/><line x1="116" y1="10.3125" x2="117.44" y2="9.96411392" class="line" style="--hue:183.50496"/><line x1="117.44" y1="9.96411392" x2="118.88" y2="9.65665872" class="line" style="--hue:190.1424"/><line x1="118.88" y1="9.65665872" x2="120.32" y2="9.38679552" class="line" style="--hue:196.2384"/><line x1="120.32" y1="9.38679552" x2="121.76" y2="9.15132752" class="line" style="--hue:201.816"/><line x1="121.76" y1="9.15132752" x2="123.2" y2="8.9472" class="line" style="--hue:206.89824"/><line x1="123.2" y1="8.9472" x2="124.64" y2="8.77150032" class="line" style="--hue:211.50816"/><line x1="124.64" y1="8.77150032" x2="126.08" y2="8.62145792" class="line" style="--hue:215.6688"/><line x1="126.08" y1="8.62145792" x2="127.52" y2="8.49444432" class="line" style="--hue:219.4032"/><line x1="127.52" y1="8.49444432" x2="128.96" y2="8.38797312" class="line" style="--hue:222.7344"/><line x1="128.96" y1="8.38797312" x2="130.4" y2="8.2997" class="line" style="--hue:225.68544"/><line x1="130.4" y1="8.2997" x2="131.84" y2="8.22742272" class="line" style="--hue:228.27936"/><line x1="131.84" y1="8.22742272" x2="133.28" y2="8.16908112" class="line" style="--hue:230.5392"/><line x1="133.28" y1="8.16908112" x2="134.72" y2="8.12275712" class="line" style="--hue:232.488"/><line x1="134.72" y1="8.12275712" x2="136.16" y2="8.08667472" class="line" style="--hue:234.1488"/><line x1="136.16" y1="8.08667472" x2="137.6" y2="8.0592" class="line" style="--hue:235.54464"/><line x1="137.6" y1="8.0592" x2="139.04" y2="8.03884112" class="line" style="--hue:236.69856"/><line x1="139.04" y1="8.03884112" x2="140.48" y2="8.02424832" class="line" style="--hue:237.6336"/><line x1="140.48" y1="8.02424832" x2="141.92" y2="8.01421392" class="line" style="--hue:238.3728"/><line x1="141.92" y1="8.01421392" x2="143.36" y2="8.00767232" class="line" style="--hue:238.9392"/><line x1="143.36" y1="8.00767232" x2="144.8" y2="8.0037" class="line" style="--hue:239.35584"/><line x1="144.8" y1="8.0037" x2="146.24" y2="8.00151552" class="line" style="--hue:239.64576"/><line x1="146.24" y1="8.00151552" x2="147.68" y2="8.00047952" class="line" style="--hue:239.832"/><line x1="147.68" y1="8.00047952" x2="149.12" y2="8.00009472" class="line" style="--hue:239.9376"/><line x1="149.12" y1="8.00009472" x2="150.56" y2="8.00000592" class="line" style="--hue:239.9856"/><line x1="150.56" y1="8.00000592" x2="152" y2="8" class="line" style="--hue:239.99904"/></svg>