<svg width="220" height="80" xmlns="http://www.w3.org/2000/svg" viewBox="0 0 220 80">
  <!--
  PHP Easing Functions
  Author: Simon André <smn.andre@gmail.com>
  https://github.com/smnandre/easing-functions
  Licence: MIT
  -->
  <title>PHP easeInOutCubic function</title>
  <defs>
    <linearGradient id="gradient" x1="0%" y1="0%" x2="100%" y2="0%">
      <stop offset='0%' stop-color='hsl(239.7, 100%, 50%)'/><stop offset='2.5%' stop-color='hsl(237.9, 100%, 50%)'/><stop offset='5%' stop-color='hsl(234.3, 100%, 50%)'/><stop offset='7.5%' stop-color='hsl(228.9, 100%, 50%)'/><stop offset='10%' stop-color='hsl(221.7, 100%, 50%)'/><stop offset='12.5%' stop-color='hsl(212.7, 100%, 50%)'/><stop offset='15%' stop-color='hsl(201.9, 100%, 50%)'/><stop offset='17.5%' stop-color='hsl(189.3, 100%, 50%)'/><stop offset='20%' stop-color='hsl(174.9, 100%, 50%)'/><stop offset='22.5%' stop-color='hsl(158.7, 100%, 50%)'/><stop offset='25%' stop-color='hsl(140.7, 100%, 50%)'/><stop offset='27.5%' stop-color='hsl(120.9, 100%, 50%)'/><stop offset='30%' stop-color='hsl(99.3, 100%, 50%)'/><stop offset='32.5%' stop-color='hsl(75.9, 100%, 50%)'/><stop offset='35%' stop-color='hsl(50.7, 100%, 50%)'/><stop offset='37.5%' stop-color='hsl(23.7, 100%, 50%)'/><stop offset='40%' stop-color='hsl(0, 100%, 50%)'/><stop offset='42.5%' stop-color='hsl(0, 100%, 50%)'/><stop offset='45%' stop-color='hsl(0, 100%, 50%)'/><stop offset='47.5%' stop-color='hsl(0, 100%, 50%)'/><stop offset='50%' stop-color='hsl(0, 100%, 50%)'/><stop offset='52.5%' stop-color='hsl(0, 100%, 50%)'/><stop offset='55%' stop-color='hsl(0, 100%, 50%)'/><stop offset='57.5%' stop-color='hsl(0, 100%, 50%)'/><stop offset='60%' stop-color='hsl(23.7, 100%, 50%)'/><stop offset='62.5%' stop-color='hsl(50.7, 100%, 50%)'/><stop offset='65%' stop-color='hsl(75.9, 100%, 50%)'/><stop offset='67.5%' stop-color='hsl(99.3, 100%, 50%)'/><stop offset='70%' stop-color='hsl(120.9, 100%, 50%)'/><stop offset='72.5%' stop-color='hsl(140.7, 100%, 50%)'/><stop offset='75%' stop-color='hsl(158.7, 100%, 50%)'/><stop offset='77.5%' stop-color='hsl(174.9, 100%, 50%)'/><stop offset='80%' stop-color='hsl(189.3, 100%, 50%)'/><stop offset='82.5%' stop-color='hsl(201.9, 100%, 50%)'/><stop offset='85%' stop-color='hsl(212.7, 100%, 50%)'/><stop offset='87.5%' stop-color='hsl(221.7, 100%, 50%)'/><stop offset='90%' stop-color='hsl(228.9, 100%, 50%)'/><stop offset='92.5%' stop-color='hsl(234.3, 100%, 50%)'/><stop offset='95%' stop-color='hsl(237.9, 100%, 50%)'/><stop offset='97.5%' stop-color='hsl(239.7, 100%, 50%)'/>
    </linearGradient>
  </defs>
  <style>
    .line {
      fill: none;
      stroke: url(#gradient);
      stroke-width: 2;
      stroke-dasharray: 214.73607601327;
      stroke-dashoffset: 214.73607601327;
      animation: draw 2s linear infinite;
    }
    @keyframes draw {
      to { stroke-dashoffset: 0; }
    }
  </style>
  <rect width="100%" height="100%" fill="black"/>
  <polyline points="10,70 15,69.996 20,69.97 25,69.899 30,69.76 35,69.531 40,69.19 45,68.714 50,68.08 55,67.266 60,66.25 65,65.009 70,63.52 75,61.761 80,59.71 85,57.344 90,54.64 95,51.576 100,48.13 105,44.279 110,40 115,35.721 120,31.87 125,28.424 130,25.36 135,22.656 140,20.29 145,18.239 150,16.48 155,14.991 160,13.75 165,12.734 170,11.92 175,11.286 180,10.81 185,10.469 190,10.24 195,10.101 200,10.03 205,10.004 210,10" class="line"/>
</svg>