<svg width="160" height="90" xmlns="http://www.w3.org/2000/svg">
  <style>
    .line { stroke-width: 4; stroke-dasharray: 171.53307856878; stroke-dashoffset: 171.53307856878; animation: draw 3s infinite; }
    @keyframes draw {
      to {
        stroke-dashoffset: 0;
      }
    }
    .line { --hue: 0; stroke: hsl(var(--hue), 100%, 50%); }
  </style><rect width="100%" height="100%" fill="#000"/><line x1="8" y1="82" x2="9.44" y2="79.802126" class="line" style="--hue:0"/><line x1="9.44" y1="79.802126" x2="10.88" y2="77.648208" class="line" style="--hue:0"/><line x1="10.88" y1="77.648208" x2="12.32" y2="75.537802" class="line" style="--hue:0"/><line x1="12.32" y1="75.537802" x2="13.76" y2="73.470464" class="line" style="--hue:0"/><line x1="13.76" y1="73.470464" x2="15.2" y2="71.44575" class="line" style="--hue:0"/><line x1="15.2" y1="71.44575" x2="16.64" y2="69.463216" class="line" style="--hue:0"/><line x1="16.64" y1="69.463216" x2="18.08" y2="67.522418" class="line" style="--hue:0"/><line x1="18.08" y1="67.522418" x2="19.52" y2="65.622912" class="line" style="--hue:0"/><line x1="19.52" y1="65.622912" x2="20.96" y2="63.764254" class="line" style="--hue:0"/><line x1="20.96" y1="63.764254" x2="22.4" y2="61.946" class="line" style="--hue:0"/><line x1="22.4" y1="61.946" x2="23.84" y2="60.167706" class="line" style="--hue:0"/><line x1="23.84" y1="60.167706" x2="25.28" y2="58.428928" class="line" style="--hue:0"/><line x1="25.28" y1="58.428928" x2="26.72" y2="56.729222" class="line" style="--hue:0"/><line x1="26.72" y1="56.729222" x2="28.16" y2="55.068144" class="line" style="--hue:0"/><line x1="28.16" y1="55.068144" x2="29.6" y2="53.44525" class="line" style="--hue:0"/><line x1="29.6" y1="53.44525" x2="31.04" y2="51.860096" class="line" style="--hue:0"/><line x1="31.04" y1="51.860096" x2="32.48" y2="50.312238" class="line" style="--hue:0"/><line x1="32.48" y1="50.312238" x2="33.92" y2="48.801232" class="line" style="--hue:0"/><line x1="33.92" y1="48.801232" x2="35.36" y2="47.326634" class="line" style="--hue:0.87599999999986"/><line x1="35.36" y1="47.326634" x2="36.8" y2="45.888" class="line" style="--hue:6.7080000000011"/><line x1="36.8" y1="45.888" x2="38.24" y2="44.484886" class="line" style="--hue:12.467999999998"/><line x1="38.24" y1="44.484886" x2="39.68" y2="43.116848" class="line" style="--hue:18.156000000001"/><line x1="39.68" y1="43.116848" x2="41.12" y2="41.783442" class="line" style="--hue:23.772"/><line x1="41.12" y1="41.783442" x2="42.56" y2="40.484224" class="line" style="--hue:29.315999999999"/><line x1="42.56" y1="40.484224" x2="44" y2="39.21875" class="line" style="--hue:34.788"/><line x1="44" y1="39.21875" x2="45.44" y2="37.986576" class="line" style="--hue:40.188000000001"/><line x1="45.44" y1="37.986576" x2="46.88" y2="36.787258" class="line" style="--hue:45.515999999999"/><line x1="46.88" y1="36.787258" x2="48.32" y2="35.620352" class="line" style="--hue:50.772000000001"/><line x1="48.32" y1="35.620352" x2="49.76" y2="34.485414" class="line" style="--hue:55.955999999997"/><line x1="49.76" y1="34.485414" x2="51.2" y2="33.382" class="line" style="--hue:61.068000000001"/><line x1="51.2" y1="33.382" x2="52.64" y2="32.309666" class="line" style="--hue:66.108"/><line x1="52.64" y1="32.309666" x2="54.08" y2="31.267968" class="line" style="--hue:71.076"/><line x1="54.08" y1="31.267968" x2="55.52" y2="30.256462" class="line" style="--hue:75.972"/><line x1="55.52" y1="30.256462" x2="56.96" y2="29.274704" class="line" style="--hue:80.796000000001"/><line x1="56.96" y1="29.274704" x2="58.4" y2="28.32225" class="line" style="--hue:85.548"/><line x1="58.4" y1="28.32225" x2="59.84" y2="27.398656" class="line" style="--hue:90.228000000001"/><line x1="59.84" y1="27.398656" x2="61.28" y2="26.503478" class="line" style="--hue:94.836"/><line x1="61.28" y1="26.503478" x2="62.72" y2="25.636272" class="line" style="--hue:99.372"/><line x1="62.72" y1="25.636272" x2="64.16" y2="24.796594" class="line" style="--hue:103.836"/><line x1="64.16" y1="24.796594" x2="65.6" y2="23.984" class="line" style="--hue:108.228"/><line x1="65.6" y1="23.984" x2="67.04" y2="23.198046" class="line" style="--hue:112.548"/><line x1="67.04" y1="23.198046" x2="68.48" y2="22.438288" class="line" style="--hue:116.796"/><line x1="68.48" y1="22.438288" x2="69.92" y2="21.704282" class="line" style="--hue:120.972"/><line x1="69.92" y1="21.704282" x2="71.36" y2="20.995584" class="line" style="--hue:125.076"/><line x1="71.36" y1="20.995584" x2="72.8" y2="20.31175" class="line" style="--hue:129.108"/><line x1="72.8" y1="20.31175" x2="74.24" y2="19.652336" class="line" style="--hue:133.068"/><line x1="74.24" y1="19.652336" x2="75.68" y2="19.016898" class="line" style="--hue:136.956"/><line x1="75.68" y1="19.016898" x2="77.12" y2="18.404992" class="line" style="--hue:140.772"/><line x1="77.12" y1="18.404992" x2="78.56" y2="17.816174" class="line" style="--hue:144.516"/><line x1="78.56" y1="17.816174" x2="80" y2="17.25" class="line" style="--hue:148.188"/><line x1="80" y1="17.25" x2="81.44" y2="16.706026" class="line" style="--hue:151.788"/><line x1="81.44" y1="16.706026" x2="82.88" y2="16.183808" class="line" style="--hue:155.316"/><line x1="82.88" y1="16.183808" x2="84.32" y2="15.682902" class="line" style="--hue:158.772"/><line x1="84.32" y1="15.682902" x2="85.76" y2="15.202864" class="line" style="--hue:162.156"/><line x1="85.76" y1="15.202864" x2="87.2" y2="14.74325" class="line" style="--hue:165.468"/><line x1="87.2" y1="14.74325" x2="88.64" y2="14.303616" class="line" style="--hue:168.708"/><line x1="88.64" y1="14.303616" x2="90.08" y2="13.883518" class="line" style="--hue:171.876"/><line x1="90.08" y1="13.883518" x2="91.52" y2="13.482512" class="line" style="--hue:174.972"/><line x1="91.52" y1="13.482512" x2="92.96" y2="13.100154" class="line" style="--hue:177.996"/><line x1="92.96" y1="13.100154" x2="94.4" y2="12.736" class="line" style="--hue:180.948"/><line x1="94.4" y1="12.736" x2="95.84" y2="12.389606" class="line" style="--hue:183.828"/><line x1="95.84" y1="12.389606" x2="97.28" y2="12.060528" class="line" style="--hue:186.636"/><line x1="97.28" y1="12.060528" x2="98.72" y2="11.748322" class="line" style="--hue:189.372"/><line x1="98.72" y1="11.748322" x2="100.16" y2="11.452544" class="line" style="--hue:192.036"/><line x1="100.16" y1="11.452544" x2="101.6" y2="11.17275" class="line" style="--hue:194.628"/><line x1="101.6" y1="11.17275" x2="103.04" y2="10.908496" class="line" style="--hue:197.148"/><line x1="103.04" y1="10.908496" x2="104.48" y2="10.659338" class="line" style="--hue:199.596"/><line x1="104.48" y1="10.659338" x2="105.92" y2="10.424832" class="line" style="--hue:201.972"/><line x1="105.92" y1="10.424832" x2="107.36" y2="10.204534" class="line" style="--hue:204.276"/><line x1="107.36" y1="10.204534" x2="108.8" y2="9.998" class="line" style="--hue:206.508"/><line x1="108.8" y1="9.998" x2="110.24" y2="9.804786" class="line" style="--hue:208.668"/><line x1="110.24" y1="9.804786" x2="111.68" y2="9.624448" class="line" style="--hue:210.756"/><line x1="111.68" y1="9.624448" x2="113.12" y2="9.456542" class="line" style="--hue:212.772"/><line x1="113.12" y1="9.456542" x2="114.56" y2="9.300624" class="line" style="--hue:214.716"/><line x1="114.56" y1="9.300624" x2="116" y2="9.15625" class="line" style="--hue:216.588"/><line x1="116" y1="9.15625" x2="117.44" y2="9.022976" class="line" style="--hue:218.388"/><line x1="117.44" y1="9.022976" x2="118.88" y2="8.900358" class="line" style="--hue:220.116"/><line x1="118.88" y1="8.900358" x2="120.32" y2="8.787952" class="line" style="--hue:221.772"/><line x1="120.32" y1="8.787952" x2="121.76" y2="8.685314" class="line" style="--hue:223.356"/><line x1="121.76" y1="8.685314" x2="123.2" y2="8.592" class="line" style="--hue:224.868"/><line x1="123.2" y1="8.592" x2="124.64" y2="8.507566" class="line" style="--hue:226.308"/><line x1="124.64" y1="8.507566" x2="126.08" y2="8.431568" class="line" style="--hue:227.676"/><line x1="126.08" y1="8.431568" x2="127.52" y2="8.363562" class="line" style="--hue:228.972"/><line x1="127.52" y1="8.363562" x2="128.96" y2="8.303104" class="line" style="--hue:230.196"/><line x1="128.96" y1="8.303104" x2="130.4" y2="8.24975" class="line" style="--hue:231.348"/><line x1="130.4" y1="8.24975" x2="131.84" y2="8.203056" class="line" style="--hue:232.428"/><line x1="131.84" y1="8.203056" x2="133.28" y2="8.162578" class="line" style="--hue:233.436"/><line x1="133.28" y1="8.162578" x2="134.72" y2="8.127872" class="line" style="--hue:234.372"/><line x1="134.72" y1="8.127872" x2="136.16" y2="8.098494" class="line" style="--hue:235.236"/><line x1="136.16" y1="8.098494" x2="137.6" y2="8.074" class="line" style="--hue:236.028"/><line x1="137.6" y1="8.074" x2="139.04" y2="8.053946" class="line" style="--hue:236.748"/><line x1="139.04" y1="8.053946" x2="140.48" y2="8.037888" class="line" style="--hue:237.396"/><line x1="140.48" y1="8.037888" x2="141.92" y2="8.025382" class="line" style="--hue:237.972"/><line x1="141.92" y1="8.025382" x2="143.36" y2="8.015984" class="line" style="--hue:238.476"/><line x1="143.36" y1="8.015984" x2="144.8" y2="8.00925" class="line" style="--hue:238.908"/><line x1="144.8" y1="8.00925" x2="146.24" y2="8.004736" class="line" style="--hue:239.268"/><line x1="146.24" y1="8.004736" x2="147.68" y2="8.001998" class="line" style="--hue:239.556"/><line x1="147.68" y1="8.001998" x2="149.12" y2="8.000592" class="line" style="--hue:239.772"/><line x1="149.12" y1="8.000592" x2="150.56" y2="8.000074" class="line" style="--hue:239.916"/><line x1="150.56" y1="8.000074" x2="152" y2="8" class="line" style="--hue:239.988"/></svg>
