<svg width="160" height="60" xmlns="http://www.w3.org/2000/svg" viewBox="0 0 160 60">
  <!--
  PHP Easing Functions
  Author: Simon André <smn.andre@gmail.com>
  https://github.com/smnandre/easing-functions
  Licence: MIT
  -->
  <title>PHP easeIn Quad function</title>
  <polyline fill="none" stroke="#9d9b9e" stroke-width="3" stroke-linecap="round" points="10,50 14.667,49.956 19.333,49.822 24,49.6 28.667,49.289 33.333,48.889 38,48.4 42.667,47.822 47.333,47.156 52,46.4 56.667,45.556 61.333,44.622 66,43.6 70.667,42.489 75.333,41.289 80,40 84.667,38.622 89.333,37.156 94,35.6 98.667,33.956 103.333,32.222 108,30.4 112.667,28.489 117.333,26.489 122,24.4 126.667,22.222 131.333,19.956 136,17.6 140.667,15.156 145.333,12.622 150,10 "/>
</svg>