<svg width="160" height="90" xmlns="http://www.w3.org/2000/svg">
  <style>
    .line { stroke-width: 4; stroke-dasharray: 166.35578172058; stroke-dashoffset: 166.35578172058; animation: draw 3s infinite; }
    @keyframes draw {
      to {
        stroke-dashoffset: 0;
      }
    }
    .line { --hue: 0; stroke: hsl(var(--hue), 100%, 50%); }
  </style><rect width="100%" height="100%" fill="#000"/><line x1="8" y1="82" x2="9.44" y2="81.9852" class="line" style="--hue:237.6"/><line x1="9.44" y1="81.9852" x2="10.88" y2="81.9408" class="line" style="--hue:232.8"/><line x1="10.88" y1="81.9408" x2="12.32" y2="81.8668" class="line" style="--hue:228"/><line x1="12.32" y1="81.8668" x2="13.76" y2="81.7632" class="line" style="--hue:223.2"/><line x1="13.76" y1="81.7632" x2="15.2" y2="81.63" class="line" style="--hue:218.4"/><line x1="15.2" y1="81.63" x2="16.64" y2="81.4672" class="line" style="--hue:213.6"/><line x1="16.64" y1="81.4672" x2="18.08" y2="81.2748" class="line" style="--hue:208.8"/><line x1="18.08" y1="81.2748" x2="19.52" y2="81.0528" class="line" style="--hue:204"/><line x1="19.52" y1="81.0528" x2="20.96" y2="80.8012" class="line" style="--hue:199.2"/><line x1="20.96" y1="80.8012" x2="22.4" y2="80.52" class="line" style="--hue:194.4"/><line x1="22.4" y1="80.52" x2="23.84" y2="80.2092" class="line" style="--hue:189.6"/><line x1="23.84" y1="80.2092" x2="25.28" y2="79.8688" class="line" style="--hue:184.8"/><line x1="25.28" y1="79.8688" x2="26.72" y2="79.4988" class="line" style="--hue:180"/><line x1="26.72" y1="79.4988" x2="28.16" y2="79.0992" class="line" style="--hue:175.2"/><line x1="28.16" y1="79.0992" x2="29.6" y2="78.67" class="line" style="--hue:170.4"/><line x1="29.6" y1="78.67" x2="31.04" y2="78.2112" class="line" style="--hue:165.6"/><line x1="31.04" y1="78.2112" x2="32.48" y2="77.7228" class="line" style="--hue:160.8"/><line x1="32.48" y1="77.7228" x2="33.92" y2="77.2048" class="line" style="--hue:156"/><line x1="33.92" y1="77.2048" x2="35.36" y2="76.6572" class="line" style="--hue:151.2"/><line x1="35.36" y1="76.6572" x2="36.8" y2="76.08" class="line" style="--hue:146.4"/><line x1="36.8" y1="76.08" x2="38.24" y2="75.4732" class="line" style="--hue:141.6"/><line x1="38.24" y1="75.4732" x2="39.68" y2="74.8368" class="line" style="--hue:136.8"/><line x1="39.68" y1="74.8368" x2="41.12" y2="74.1708" class="line" style="--hue:132"/><line x1="41.12" y1="74.1708" x2="42.56" y2="73.4752" class="line" style="--hue:127.2"/><line x1="42.56" y1="73.4752" x2="44" y2="72.75" class="line" style="--hue:122.4"/><line x1="44" y1="72.75" x2="45.44" y2="71.9952" class="line" style="--hue:117.6"/><line x1="45.44" y1="71.9952" x2="46.88" y2="71.2108" class="line" style="--hue:112.8"/><line x1="46.88" y1="71.2108" x2="48.32" y2="70.3968" class="line" style="--hue:108"/><line x1="48.32" y1="70.3968" x2="49.76" y2="69.5532" class="line" style="--hue:103.2"/><line x1="49.76" y1="69.5532" x2="51.2" y2="68.68" class="line" style="--hue:98.4"/><line x1="51.2" y1="68.68" x2="52.64" y2="67.7772" class="line" style="--hue:93.6"/><line x1="52.64" y1="67.7772" x2="54.08" y2="66.8448" class="line" style="--hue:88.8"/><line x1="54.08" y1="66.8448" x2="55.52" y2="65.8828" class="line" style="--hue:84"/><line x1="55.52" y1="65.8828" x2="56.96" y2="64.8912" class="line" style="--hue:79.2"/><line x1="56.96" y1="64.8912" x2="58.4" y2="63.87" class="line" style="--hue:74.4"/><line x1="58.4" y1="63.87" x2="59.84" y2="62.8192" class="line" style="--hue:69.6"/><line x1="59.84" y1="62.8192" x2="61.28" y2="61.7388" class="line" style="--hue:64.8"/><line x1="61.28" y1="61.7388" x2="62.72" y2="60.6288" class="line" style="--hue:60"/><line x1="62.72" y1="60.6288" x2="64.16" y2="59.4892" class="line" style="--hue:55.2"/><line x1="64.16" y1="59.4892" x2="65.6" y2="58.32" class="line" style="--hue:50.4"/><line x1="65.6" y1="58.32" x2="67.04" y2="57.1212" class="line" style="--hue:45.600000000001"/><line x1="67.04" y1="57.1212" x2="68.48" y2="55.8928" class="line" style="--hue:40.8"/><line x1="68.48" y1="55.8928" x2="69.92" y2="54.6348" class="line" style="--hue:36"/><line x1="69.92" y1="54.6348" x2="71.36" y2="53.3472" class="line" style="--hue:31.2"/><line x1="71.36" y1="53.3472" x2="72.8" y2="52.03" class="line" style="--hue:26.4"/><line x1="72.8" y1="52.03" x2="74.24" y2="50.6832" class="line" style="--hue:21.6"/><line x1="74.24" y1="50.6832" x2="75.68" y2="49.3068" class="line" style="--hue:16.8"/><line x1="75.68" y1="49.3068" x2="77.12" y2="47.9008" class="line" style="--hue:12"/><line x1="77.12" y1="47.9008" x2="78.56" y2="46.4652" class="line" style="--hue:7.2000000000005"/><line x1="78.56" y1="46.4652" x2="80" y2="45" class="line" style="--hue:2.3999999999997"/><line x1="80" y1="45" x2="81.44" y2="43.5348" class="line" style="--hue:2.3999999999997"/><line x1="81.44" y1="43.5348" x2="82.88" y2="42.0992" class="line" style="--hue:7.2000000000005"/><line x1="82.88" y1="42.0992" x2="84.32" y2="40.6932" class="line" style="--hue:12"/><line x1="84.32" y1="40.6932" x2="85.76" y2="39.3168" class="line" style="--hue:16.799999999999"/><line x1="85.76" y1="39.3168" x2="87.2" y2="37.97" class="line" style="--hue:21.6"/><line x1="87.2" y1="37.97" x2="88.64" y2="36.6528" class="line" style="--hue:26.400000000001"/><line x1="88.64" y1="36.6528" x2="90.08" y2="35.3652" class="line" style="--hue:31.2"/><line x1="90.08" y1="35.3652" x2="91.52" y2="34.1072" class="line" style="--hue:35.999999999999"/><line x1="91.52" y1="34.1072" x2="92.96" y2="32.8788" class="line" style="--hue:40.800000000001"/><line x1="92.96" y1="32.8788" x2="94.4" y2="31.68" class="line" style="--hue:45.6"/><line x1="94.4" y1="31.68" x2="95.84" y2="30.5108" class="line" style="--hue:50.4"/><line x1="95.84" y1="30.5108" x2="97.28" y2="29.3712" class="line" style="--hue:55.199999999999"/><line x1="97.28" y1="29.3712" x2="98.72" y2="28.2612" class="line" style="--hue:60.000000000001"/><line x1="98.72" y1="28.2612" x2="100.16" y2="27.1808" class="line" style="--hue:64.799999999999"/><line x1="100.16" y1="27.1808" x2="101.6" y2="26.13" class="line" style="--hue:69.6"/><line x1="101.6" y1="26.13" x2="103.04" y2="25.1088" class="line" style="--hue:74.4"/><line x1="103.04" y1="25.1088" x2="104.48" y2="24.1172" class="line" style="--hue:79.200000000001"/><line x1="104.48" y1="24.1172" x2="105.92" y2="23.1552" class="line" style="--hue:83.999999999999"/><line x1="105.92" y1="23.1552" x2="107.36" y2="22.2228" class="line" style="--hue:88.8"/><line x1="107.36" y1="22.2228" x2="108.8" y2="21.32" class="line" style="--hue:93.6"/><line x1="108.8" y1="21.32" x2="110.24" y2="20.4468" class="line" style="--hue:98.4"/><line x1="110.24" y1="20.4468" x2="111.68" y2="19.6032" class="line" style="--hue:103.2"/><line x1="111.68" y1="19.6032" x2="113.12" y2="18.7892" class="line" style="--hue:108"/><line x1="113.12" y1="18.7892" x2="114.56" y2="18.0048" class="line" style="--hue:112.8"/><line x1="114.56" y1="18.0048" x2="116" y2="17.25" class="line" style="--hue:117.6"/><line x1="116" y1="17.25" x2="117.44" y2="16.5248" class="line" style="--hue:122.4"/><line x1="117.44" y1="16.5248" x2="118.88" y2="15.8292" class="line" style="--hue:127.2"/><line x1="118.88" y1="15.8292" x2="120.32" y2="15.1632" class="line" style="--hue:132"/><line x1="120.32" y1="15.1632" x2="121.76" y2="14.5268" class="line" style="--hue:136.8"/><line x1="121.76" y1="14.5268" x2="123.2" y2="13.92" class="line" style="--hue:141.6"/><line x1="123.2" y1="13.92" x2="124.64" y2="13.3428" class="line" style="--hue:146.4"/><line x1="124.64" y1="13.3428" x2="126.08" y2="12.7952" class="line" style="--hue:151.2"/><line x1="126.08" y1="12.7952" x2="127.52" y2="12.2772" class="line" style="--hue:156"/><line x1="127.52" y1="12.2772" x2="128.96" y2="11.7888" class="line" style="--hue:160.8"/><line x1="128.96" y1="11.7888" x2="130.4" y2="11.33" class="line" style="--hue:165.6"/><line x1="130.4" y1="11.33" x2="131.84" y2="10.9008" class="line" style="--hue:170.4"/><line x1="131.84" y1="10.9008" x2="133.28" y2="10.5012" class="line" style="--hue:175.2"/><line x1="133.28" y1="10.5012" x2="134.72" y2="10.1312" class="line" style="--hue:180"/><line x1="134.72" y1="10.1312" x2="136.16" y2="9.7908" class="line" style="--hue:184.8"/><line x1="136.16" y1="9.7908" x2="137.6" y2="9.48" class="line" style="--hue:189.6"/><line x1="137.6" y1="9.48" x2="139.04" y2="9.1988" class="line" style="--hue:194.4"/><line x1="139.04" y1="9.1988" x2="140.48" y2="8.9472" class="line" style="--hue:199.2"/><line x1="140.48" y1="8.9472" x2="141.92" y2="8.7252" class="line" style="--hue:204"/><line x1="141.92" y1="8.7252" x2="143.36" y2="8.5328" class="line" style="--hue:208.8"/><line x1="143.36" y1="8.5328" x2="144.8" y2="8.37" class="line" style="--hue:213.6"/><line x1="144.8" y1="8.37" x2="146.24" y2="8.2368" class="line" style="--hue:218.4"/><line x1="146.24" y1="8.2368" x2="147.68" y2="8.1332" class="line" style="--hue:223.2"/><line x1="147.68" y1="8.1332" x2="149.12" y2="8.0592" class="line" style="--hue:228"/><line x1="149.12" y1="8.0592" x2="150.56" y2="8.0148" class="line" style="--hue:232.8"/><line x1="150.56" y1="8.0148" x2="152" y2="8" class="line" style="--hue:237.6"/></svg>