<svg width="100" height="70" xmlns="http://www.w3.org/2000/svg"><polyline fill="none" stroke="#999" stroke-width="4" stroke-linecap="round" points="5,65 5.9,63.806 6.8,62.624 7.7,61.454 8.6,60.296 9.5,59.15 10.4,58.016 11.3,56.894 12.2,55.784 13.1,54.686 14,53.6 14.9,52.526 15.8,51.464 16.7,50.414 17.6,49.376 18.5,48.35 19.4,47.336 20.3,46.334 21.2,45.344 22.1,44.366 23,43.4 23.9,42.446 24.8,41.504 25.7,40.574 26.6,39.656 27.5,38.75 28.4,37.856 29.3,36.974 30.2,36.104 31.1,35.246 32,34.4 32.9,33.566 33.8,32.744 34.7,31.934 35.6,31.136 36.5,30.35 37.4,29.576 38.3,28.814 39.2,28.064 40.1,27.326 41,26.6 41.9,25.886 42.8,25.184 43.7,24.494 44.6,23.816 45.5,23.15 46.4,22.496 47.3,21.854 48.2,21.224 49.1,20.606 50,20 50.9,19.406 51.8,18.824 52.7,18.254 53.6,17.696 54.5,17.15 55.4,16.616 56.3,16.094 57.2,15.584 58.1,15.086 59,14.6 59.9,14.126 60.8,13.664 61.7,13.214 62.6,12.776 63.5,12.35 64.4,11.936 65.3,11.534 66.2,11.144 67.1,10.766 68,10.4 68.9,10.046 69.8,9.704 70.7,9.374 71.6,9.056 72.5,8.75 73.4,8.456 74.3,8.174 75.2,7.904 76.1,7.646 77,7.4 77.9,7.166 78.8,6.944 79.7,6.734 80.6,6.536 81.5,6.35 82.4,6.176 83.3,6.014 84.2,5.864 85.1,5.726 86,5.6 86.9,5.486 87.8,5.384 88.7,5.294 89.6,5.216 90.5,5.15 91.4,5.096 92.3,5.054 93.2,5.024 94.1,5.006 95,5 "/>
</svg>