<svg width="100" height="70" xmlns="http://www.w3.org/2000/svg"><polyline fill="none" stroke="#999" stroke-width="4" stroke-linecap="round" points="5,65 5.9,64.99994 6.8,64.99952 7.7,64.99838 8.6,64.99616 9.5,64.9925 10.4,64.98704 11.3,64.97942 12.2,64.96928 13.1,64.95626 14,64.94 14.9,64.92014 15.8,64.89632 16.7,64.86818 17.6,64.83536 18.5,64.7975 19.4,64.75424 20.3,64.70522 21.2,64.65008 22.1,64.58846 23,64.52 23.9,64.44434 24.8,64.36112 25.7,64.26998 26.6,64.17056 27.5,64.0625 28.4,63.94544 29.3,63.81902 30.2,63.68288 31.1,63.53666 32,63.38 32.9,63.21254 33.8,63.03392 34.7,62.84378 35.6,62.64176 36.5,62.4275 37.4,62.20064 38.3,61.96082 39.2,61.70768 40.1,61.44086 41,61.16 41.9,60.86474 42.8,60.55472 43.7,60.22958 44.6,59.88896 45.5,59.5325 46.4,59.15984 47.3,58.77062 48.2,58.36448 49.1,57.94106 50,57.5 50.9,57.04094 51.8,56.56352 52.7,56.06738 53.6,55.55216 54.5,55.0175 55.4,54.46304 56.3,53.88842 57.2,53.29328 58.1,52.67726 59,52.04 59.9,51.38114 60.8,50.70032 61.7,49.99718 62.6,49.27136 63.5,48.5225 64.4,47.75024 65.3,46.95422 66.2,46.13408 67.1,45.28946 68,44.42 68.9,43.52534 69.8,42.60512 70.7,41.65898 71.6,40.68656 72.5,39.6875 73.4,38.66144 74.3,37.60802 75.2,36.52688 76.1,35.41766 77,34.28 77.9,33.11354 78.8,31.91792 79.7,30.69278 80.6,29.43776 81.5,28.1525 82.4,26.83664 83.3,25.48982 84.2,24.11168 85.1,22.70186 86,21.26 86.9,19.78574 87.8,18.27872 88.7,16.73858 89.6,15.16496 90.5,13.5575 91.4,11.91584 92.3,10.23962 93.2,8.52848 94.1,6.78206 95,5 "/>
</svg>