<svg width="160" height="60" xmlns="http://www.w3.org/2000/svg" viewBox="0 0 160 60">
  <!--
  PHP Easing Functions
  Author: Simon André <smn.andre@gmail.com>
  https://github.com/smnandre/easing-functions
  Licence: MIT
  -->
  <title>PHP easeOut Quad function</title>
  <polyline fill="none" stroke="#9d9b9e" stroke-width="3" stroke-linecap="round" points="10,50 14.667,47.378 19.333,44.844 24,42.4 28.667,40.044 33.333,37.778 38,35.6 42.667,33.511 47.333,31.511 52,29.6 56.667,27.778 61.333,26.044 66,24.4 70.667,22.844 75.333,21.378 80,20 84.667,18.711 89.333,17.511 94,16.4 98.667,15.378 103.333,14.444 108,13.6 112.667,12.844 117.333,12.178 122,11.6 126.667,11.111 131.333,10.711 136,10.4 140.667,10.178 145.333,10.044 150,10 "/>
</svg>