<svg width="160" height="90" xmlns="http://www.w3.org/2000/svg">
  <style>
    .line { stroke-width: 4; stroke-dasharray: 175.83007202173; stroke-dashoffset: 175.83007202173; animation: draw 3s infinite; }
    @keyframes draw {
      to {
        stroke-dashoffset: 0;
      }
    }
    .line { --hue: 0; stroke: hsl(var(--hue), 100%, 50%); }
  </style><rect width="100%" height="100%" fill="#000"/><line x1="8" y1="82" x2="9.44" y2="79.08410474" class="line" style="--hue:0"/><line x1="9.44" y1="79.08410474" x2="10.88" y2="76.25524384" class="line" style="--hue:0"/><line x1="10.88" y1="76.25524384" x2="12.32" y2="73.51166794" class="line" style="--hue:0"/><line x1="12.32" y1="73.51166794" x2="13.76" y2="70.85164544" class="line" style="--hue:0"/><line x1="13.76" y1="70.85164544" x2="15.2" y2="68.2734625" class="line" style="--hue:0"/><line x1="15.2" y1="68.2734625" x2="16.64" y2="65.77542304" class="line" style="--hue:0"/><line x1="16.64" y1="65.77542304" x2="18.08" y2="63.35584874" class="line" style="--hue:0"/><line x1="18.08" y1="63.35584874" x2="19.52" y2="61.01307904" class="line" style="--hue:0"/><line x1="19.52" y1="61.01307904" x2="20.96" y2="58.74547114" class="line" style="--hue:0"/><line x1="20.96" y1="58.74547114" x2="22.4" y2="56.5514" class="line" style="--hue:0"/><line x1="22.4" y1="56.5514" x2="23.84" y2="54.42925834" class="line" style="--hue:0"/><line x1="23.84" y1="54.42925834" x2="25.28" y2="52.37745664" class="line" style="--hue:0"/><line x1="25.28" y1="52.37745664" x2="26.72" y2="50.39442314" class="line" style="--hue:0"/><line x1="26.72" y1="50.39442314" x2="28.16" y2="48.47860384" class="line" style="--hue:0"/><line x1="28.16" y1="48.47860384" x2="29.6" y2="46.6284625" class="line" style="--hue:0"/><line x1="29.6" y1="46.6284625" x2="31.04" y2="44.84248064" class="line" style="--hue:0"/><line x1="31.04" y1="44.84248064" x2="32.48" y2="43.11915754" class="line" style="--hue:0"/><line x1="32.48" y1="43.11915754" x2="33.92" y2="41.45701024" class="line" style="--hue:0"/><line x1="33.92" y1="41.45701024" x2="35.36" y2="39.85457354" class="line" style="--hue:0"/><line x1="35.36" y1="39.85457354" x2="36.8" y2="38.3104" class="line" style="--hue:0"/><line x1="36.8" y1="38.3104" x2="38.24" y2="36.82305994" class="line" style="--hue:0"/><line x1="38.24" y1="36.82305994" x2="39.68" y2="35.39114144" class="line" style="--hue:7.7970000000001"/><line x1="39.68" y1="35.39114144" x2="41.12" y2="34.01325034" class="line" style="--hue:16.558199999999"/><line x1="41.12" y1="34.01325034" x2="42.56" y2="32.68801024" class="line" style="--hue:25.096199999999"/><line x1="42.56" y1="32.68801024" x2="44" y2="31.4140625" class="line" style="--hue:33.41388"/><line x1="44" y1="31.4140625" x2="45.44" y2="30.19006624" class="line" style="--hue:41.51412"/><line x1="45.44" y1="30.19006624" x2="46.88" y2="29.01469834" class="line" style="--hue:49.399799999999"/><line x1="46.88" y1="29.01469834" x2="48.32" y2="27.88665344" class="line" style="--hue:57.073800000001"/><line x1="48.32" y1="27.88665344" x2="49.76" y2="26.80464394" class="line" style="--hue:64.538999999999"/><line x1="49.76" y1="26.80464394" x2="51.2" y2="25.7674" class="line" style="--hue:71.79828"/><line x1="51.2" y1="25.7674" x2="52.64" y2="24.77366954" class="line" style="--hue:78.854519999999"/><line x1="52.64" y1="24.77366954" x2="54.08" y2="23.82221824" class="line" style="--hue:85.7106"/><line x1="54.08" y1="23.82221824" x2="55.52" y2="22.91182954" class="line" style="--hue:92.369400000001"/><line x1="55.52" y1="22.91182954" x2="56.96" y2="22.04130464" class="line" style="--hue:98.8338"/><line x1="56.96" y1="22.04130464" x2="58.4" y2="21.2094625" class="line" style="--hue:105.10668"/><line x1="58.4" y1="21.2094625" x2="59.84" y2="20.41513984" class="line" style="--hue:111.19092"/><line x1="59.84" y1="20.41513984" x2="61.28" y2="19.65719114" class="line" style="--hue:117.0894"/><line x1="61.28" y1="19.65719114" x2="62.72" y2="18.93448864" class="line" style="--hue:122.805"/><line x1="62.72" y1="18.93448864" x2="64.16" y2="18.24592234" class="line" style="--hue:128.3406"/><line x1="64.16" y1="18.24592234" x2="65.6" y2="17.5904" class="line" style="--hue:133.69908"/><line x1="65.6" y1="17.5904" x2="67.04" y2="16.96684714" class="line" style="--hue:138.88332"/><line x1="67.04" y1="16.96684714" x2="68.48" y2="16.37420704" class="line" style="--hue:143.8962"/><line x1="68.48" y1="16.37420704" x2="69.92" y2="15.81144074" class="line" style="--hue:148.7406"/><line x1="69.92" y1="15.81144074" x2="71.36" y2="15.27752704" class="line" style="--hue:153.4194"/><line x1="71.36" y1="15.27752704" x2="72.8" y2="14.7714625" class="line" style="--hue:157.93548"/><line x1="72.8" y1="14.7714625" x2="74.24" y2="14.29226144" class="line" style="--hue:162.29172"/><line x1="74.24" y1="14.29226144" x2="75.68" y2="13.83895594" class="line" style="--hue:166.491"/><line x1="75.68" y1="13.83895594" x2="77.12" y2="13.41059584" class="line" style="--hue:170.5362"/><line x1="77.12" y1="13.41059584" x2="78.56" y2="13.00624874" class="line" style="--hue:174.4302"/><line x1="78.56" y1="13.00624874" x2="80" y2="12.625" class="line" style="--hue:178.17588"/><line x1="80" y1="12.625" x2="81.44" y2="12.26595274" class="line" style="--hue:181.77612"/><line x1="81.44" y1="12.26595274" x2="82.88" y2="11.92822784" class="line" style="--hue:185.2338"/><line x1="82.88" y1="11.92822784" x2="84.32" y2="11.61096394" class="line" style="--hue:188.5518"/><line x1="84.32" y1="11.61096394" x2="85.76" y2="11.31331744" class="line" style="--hue:191.733"/><line x1="85.76" y1="11.31331744" x2="87.2" y2="11.0344625" class="line" style="--hue:194.78028"/><line x1="87.2" y1="11.0344625" x2="88.64" y2="10.77359104" class="line" style="--hue:197.69652"/><line x1="88.64" y1="10.77359104" x2="90.08" y2="10.52991274" class="line" style="--hue:200.4846"/><line x1="90.08" y1="10.52991274" x2="91.52" y2="10.30265504" class="line" style="--hue:203.1474"/><line x1="91.52" y1="10.30265504" x2="92.96" y2="10.09106314" class="line" style="--hue:205.6878"/><line x1="92.96" y1="10.09106314" x2="94.4" y2="9.8944" class="line" style="--hue:208.10868"/><line x1="94.4" y1="9.8944" x2="95.84" y2="9.71194634" class="line" style="--hue:210.41292"/><line x1="95.84" y1="9.71194634" x2="97.28" y2="9.54300064" class="line" style="--hue:212.6034"/><line x1="97.28" y1="9.54300064" x2="98.72" y2="9.38687914" class="line" style="--hue:214.683"/><line x1="98.72" y1="9.38687914" x2="100.16" y2="9.24291584" class="line" style="--hue:216.6546"/><line x1="100.16" y1="9.24291584" x2="101.6" y2="9.1104625" class="line" style="--hue:218.52108"/><line x1="101.6" y1="9.1104625" x2="103.04" y2="8.98888864" class="line" style="--hue:220.28532"/><line x1="103.04" y1="8.98888864" x2="104.48" y2="8.87758154" class="line" style="--hue:221.9502"/><line x1="104.48" y1="8.87758154" x2="105.92" y2="8.77594624" class="line" style="--hue:223.5186"/><line x1="105.92" y1="8.77594624" x2="107.36" y2="8.68340554" class="line" style="--hue:224.9934"/><line x1="107.36" y1="8.68340554" x2="108.8" y2="8.5994" class="line" style="--hue:226.37748"/><line x1="108.8" y1="8.5994" x2="110.24" y2="8.52338794" class="line" style="--hue:227.67372"/><line x1="110.24" y1="8.52338794" x2="111.68" y2="8.45484544" class="line" style="--hue:228.885"/><line x1="111.68" y1="8.45484544" x2="113.12" y2="8.39326634" class="line" style="--hue:230.0142"/><line x1="113.12" y1="8.39326634" x2="114.56" y2="8.33816224" class="line" style="--hue:231.0642"/><line x1="114.56" y1="8.33816224" x2="116" y2="8.2890625" class="line" style="--hue:232.03788"/><line x1="116" y1="8.2890625" x2="117.44" y2="8.24551424" class="line" style="--hue:232.93812"/><line x1="117.44" y1="8.24551424" x2="118.88" y2="8.20708234" class="line" style="--hue:233.7678"/><line x1="118.88" y1="8.20708234" x2="120.32" y2="8.17334944" class="line" style="--hue:234.5298"/><line x1="120.32" y1="8.17334944" x2="121.76" y2="8.14391594" class="line" style="--hue:235.227"/><line x1="121.76" y1="8.14391594" x2="123.2" y2="8.1184" class="line" style="--hue:235.86228"/><line x1="123.2" y1="8.1184" x2="124.64" y2="8.09643754" class="line" style="--hue:236.43852"/><line x1="124.64" y1="8.09643754" x2="126.08" y2="8.07768224" class="line" style="--hue:236.9586"/><line x1="126.08" y1="8.07768224" x2="127.52" y2="8.06180554" class="line" style="--hue:237.4254"/><line x1="127.52" y1="8.06180554" x2="128.96" y2="8.04849664" class="line" style="--hue:237.8418"/><line x1="128.96" y1="8.04849664" x2="130.4" y2="8.0374625" class="line" style="--hue:238.21068"/><line x1="130.4" y1="8.0374625" x2="131.84" y2="8.02842784" class="line" style="--hue:238.53492"/><line x1="131.84" y1="8.02842784" x2="133.28" y2="8.02113514" class="line" style="--hue:238.8174"/><line x1="133.28" y1="8.02113514" x2="134.72" y2="8.01534464" class="line" style="--hue:239.061"/><line x1="134.72" y1="8.01534464" x2="136.16" y2="8.01083434" class="line" style="--hue:239.2686"/><line x1="136.16" y1="8.01083434" x2="137.6" y2="8.0074" class="line" style="--hue:239.44308"/><line x1="137.6" y1="8.0074" x2="139.04" y2="8.00485514" class="line" style="--hue:239.58732"/><line x1="139.04" y1="8.00485514" x2="140.48" y2="8.00303104" class="line" style="--hue:239.7042"/><line x1="140.48" y1="8.00303104" x2="141.92" y2="8.00177674" class="line" style="--hue:239.7966"/><line x1="141.92" y1="8.00177674" x2="143.36" y2="8.00095904" class="line" style="--hue:239.8674"/><line x1="143.36" y1="8.00095904" x2="144.8" y2="8.0004625" class="line" style="--hue:239.91948"/><line x1="144.8" y1="8.0004625" x2="146.24" y2="8.00018944" class="line" style="--hue:239.95572"/><line x1="146.24" y1="8.00018944" x2="147.68" y2="8.00005994" class="line" style="--hue:239.979"/><line x1="147.68" y1="8.00005994" x2="149.12" y2="8.00001184" class="line" style="--hue:239.9922"/><line x1="149.12" y1="8.00001184" x2="150.56" y2="8.00000074" class="line" style="--hue:239.9982"/><line x1="150.56" y1="8.00000074" x2="152" y2="8" class="line" style="--hue:239.99988"/></svg>