<svg width="100" height="70" xmlns="http://www.w3.org/2000/svg"><polyline fill="none" stroke="#999" stroke-width="4" stroke-linecap="round" points="5,65 5.9,63.21794 6.8,61.47152 7.7,59.76038 8.6,58.08416 9.5,56.4425 10.4,54.83504 11.3,53.26142 12.2,51.72128 13.1,50.21426 14,48.74 14.9,47.29814 15.8,45.88832 16.7,44.51018 17.6,43.16336 18.5,41.8475 19.4,40.56224 20.3,39.30722 21.2,38.08208 22.1,36.88646 23,35.72 23.9,34.58234 24.8,33.47312 25.7,32.39198 26.6,31.33856 27.5,30.3125 28.4,29.31344 29.3,28.34102 30.2,27.39488 31.1,26.47466 32,25.58 32.9,24.71054 33.8,23.86592 34.7,23.04578 35.6,22.24976 36.5,21.4775 37.4,20.72864 38.3,20.00282 39.2,19.29968 40.1,18.61886 41,17.96 41.9,17.32274 42.8,16.70672 43.7,16.11158 44.6,15.53696 45.5,14.9825 46.4,14.44784 47.3,13.93262 48.2,13.43648 49.1,12.95906 50,12.5 50.9,12.05894 51.8,11.63552 52.7,11.22938 53.6,10.84016 54.5,10.4675 55.4,10.11104 56.3,9.77042 57.2,9.44528 58.1,9.13526 59,8.84 59.9,8.55914 60.8,8.29232 61.7,8.03918 62.6,7.79936 63.5,7.5725 64.4,7.35824 65.3,7.15622 66.2,6.96608 67.1,6.78746 68,6.62 68.9,6.46334 69.8,6.31712 70.7,6.18098 71.6,6.05456 72.5,5.9375 73.4,5.82944 74.3,5.73002 75.2,5.63888 76.1,5.55566 77,5.48 77.9,5.41154 78.8,5.34992 79.7,5.29478 80.6,5.24576 81.5,5.2025 82.4,5.16464 83.3,5.13182 84.2,5.10368 85.1,5.07986 86,5.06 86.9,5.04374 87.8,5.03072 88.7,5.02058 89.6,5.01296 90.5,5.0075 91.4,5.00384 92.3,5.00162 93.2,5.00048 94.1,5.00006 95,5 "/>
</svg>