<svg width="100" height="70" xmlns="http://www.w3.org/2000/svg"><polyline fill="none" stroke="#999" stroke-width="4" stroke-linecap="round" points="5,65 5.9,64.9999994 6.8,64.9999904 7.7,64.9999514 8.6,64.9998464 9.5,64.999625 10.4,64.9992224 11.3,64.9985594 12.2,64.9975424 13.1,64.9960634 14,64.994 14.9,64.9912154 15.8,64.9875584 16.7,64.9828634 17.6,64.9769504 18.5,64.969625 19.4,64.9606784 20.3,64.9498874 21.2,64.9370144 22.1,64.9218074 23,64.904 23.9,64.8833114 24.8,64.8594464 25.7,64.8320954 26.6,64.8009344 27.5,64.765625 28.4,64.7258144 29.3,64.6811354 30.2,64.6312064 31.1,64.5756314 32,64.514 32.9,64.4458874 33.8,64.3708544 34.7,64.2884474 35.6,64.1981984 36.5,64.099625 37.4,63.9922304 38.3,63.8755034 39.2,63.7489184 40.1,63.6119354 41,63.464 41.9,63.3045434 42.8,63.1329824 43.7,62.9487194 44.6,62.7511424 45.5,62.539625 46.4,62.3135264 47.3,62.0721914 48.2,61.8149504 49.1,61.5411194 50,61.25 50.9,60.9408794 51.8,60.6130304 52.7,60.2657114 53.6,59.8981664 54.5,59.509625 55.4,59.0993024 56.3,58.6663994 57.2,58.2101024 58.1,57.7295834 59,57.224 59.9,56.6924954 60.8,56.1341984 61.7,55.5482234 62.6,54.9336704 63.5,54.289625 64.4,53.6151584 65.3,52.9093274 66.2,52.1711744 67.1,51.3997274 68,50.594 68.9,49.7529914 69.8,48.8756864 70.7,47.9610554 71.6,47.0080544 72.5,46.015625 73.4,44.9826944 74.3,43.9081754 75.2,42.7909664 76.1,41.6299514 77,40.424 77.9,39.1719674 78.8,37.8726944 79.7,36.5250074 80.6,35.1277184 81.5,33.679625 82.4,32.1795104 83.3,30.6261434 84.2,29.0182784 85.1,27.3546554 86,25.634 86.9,23.8550234 87.8,22.0164224 88.7,20.1168794 89.6,18.1550624 90.5,16.129625 91.4,14.0392064 92.3,11.8824314 93.2,9.6579104 94.1,7.3642394 95,5 "/>
</svg>