<svg width="160" height="60" xmlns="http://www.w3.org/2000/svg" viewBox="0 0 160 60">
  <!--
  PHP Easing Functions
  Author: Simon André <smn.andre@gmail.com>
  https://github.com/smnandre/easing-functions
  Licence: MIT
  -->
  <title>PHP easeOut Cubic function</title>
  <polyline fill="none" stroke="#9d9b9e" stroke-width="3" stroke-linecap="round" points="10,50 14.667,46.132 19.333,42.521 24,39.16 28.667,36.039 33.333,33.148 38,30.48 42.667,28.025 47.333,25.775 52,23.72 56.667,21.852 61.333,20.161 66,18.64 70.667,17.279 75.333,16.068 80,15 84.667,14.065 89.333,13.255 94,12.56 98.667,11.972 103.333,11.481 108,11.08 112.667,10.759 117.333,10.508 122,10.32 126.667,10.185 131.333,10.095 136,10.04 140.667,10.012 145.333,10.001 150,10 "/>
</svg>