<svg width="220" height="80" xmlns="http://www.w3.org/2000/svg" viewBox="0 0 220 80">
  <!--
  PHP Easing Functions
  Author: Simon André <smn.andre@gmail.com>
  https://github.com/smnandre/easing-functions
  Licence: MIT
  -->
  <title>PHP easeInQuart function</title>
  <defs>
    <linearGradient id="gradient" x1="0%" y1="0%" x2="100%" y2="0%">
      <stop offset='0%' stop-color='hsl(239.998125, 100%, 50%)'/><stop offset='2.5%' stop-color='hsl(239.971875, 100%, 50%)'/><stop offset='5%' stop-color='hsl(239.878125, 100%, 50%)'/><stop offset='7.5%' stop-color='hsl(239.671875, 100%, 50%)'/><stop offset='10%' stop-color='hsl(239.308125, 100%, 50%)'/><stop offset='12.5%' stop-color='hsl(238.741875, 100%, 50%)'/><stop offset='15%' stop-color='hsl(237.928125, 100%, 50%)'/><stop offset='17.5%' stop-color='hsl(236.821875, 100%, 50%)'/><stop offset='20%' stop-color='hsl(235.378125, 100%, 50%)'/><stop offset='22.5%' stop-color='hsl(233.551875, 100%, 50%)'/><stop offset='25%' stop-color='hsl(231.298125, 100%, 50%)'/><stop offset='27.5%' stop-color='hsl(228.571875, 100%, 50%)'/><stop offset='30%' stop-color='hsl(225.328125, 100%, 50%)'/><stop offset='32.5%' stop-color='hsl(221.521875, 100%, 50%)'/><stop offset='35%' stop-color='hsl(217.108125, 100%, 50%)'/><stop offset='37.5%' stop-color='hsl(212.041875, 100%, 50%)'/><stop offset='40%' stop-color='hsl(206.278125, 100%, 50%)'/><stop offset='42.5%' stop-color='hsl(199.771875, 100%, 50%)'/><stop offset='45%' stop-color='hsl(192.478125, 100%, 50%)'/><stop offset='47.5%' stop-color='hsl(184.351875, 100%, 50%)'/><stop offset='50%' stop-color='hsl(175.348125, 100%, 50%)'/><stop offset='52.5%' stop-color='hsl(165.421875, 100%, 50%)'/><stop offset='55%' stop-color='hsl(154.528125, 100%, 50%)'/><stop offset='57.5%' stop-color='hsl(142.621875, 100%, 50%)'/><stop offset='60%' stop-color='hsl(129.658125, 100%, 50%)'/><stop offset='62.5%' stop-color='hsl(115.591875, 100%, 50%)'/><stop offset='65%' stop-color='hsl(100.378125, 100%, 50%)'/><stop offset='67.5%' stop-color='hsl(83.971875, 100%, 50%)'/><stop offset='70%' stop-color='hsl(66.328125, 100%, 50%)'/><stop offset='72.5%' stop-color='hsl(47.401875, 100%, 50%)'/><stop offset='75%' stop-color='hsl(27.148125, 100%, 50%)'/><stop offset='77.5%' stop-color='hsl(5.521875, 100%, 50%)'/><stop offset='80%' stop-color='hsl(0, 100%, 50%)'/><stop offset='82.5%' stop-color='hsl(0, 100%, 50%)'/><stop offset='85%' stop-color='hsl(0, 100%, 50%)'/><stop offset='87.5%' stop-color='hsl(0, 100%, 50%)'/><stop offset='90%' stop-color='hsl(0, 100%, 50%)'/><stop offset='92.5%' stop-color='hsl(0, 100%, 50%)'/><stop offset='95%' stop-color='hsl(0, 100%, 50%)'/><stop offset='97.5%' stop-color='hsl(0, 100%, 50%)'/>
    </linearGradient>
  </defs>
  <style>
    .line {
      fill: none;
      stroke: url(#gradient);
      stroke-width: 2;
      stroke-dasharray: 217.78152306873;
      stroke-dashoffset: 217.78152306873;
      animation: draw 2s linear infinite;
    }
    @keyframes draw {
      to { stroke-dashoffset: 0; }
    }
  </style>
  <rect width="100%" height="100%" fill="black"/>
  <polyline points="10,70 15,70 20,70 25,69.998 30,69.994 35,69.985 40,69.97 45,69.944 50,69.904 55,69.846 60,69.766 65,69.657 70,69.514 75,69.331 80,69.1 85,68.813 90,68.464 95,68.042 100,67.54 105,66.946 110,66.25 115,65.442 120,64.51 125,63.441 130,62.224 135,60.845 140,59.29 145,57.544 150,55.594 155,53.423 160,51.016 165,48.355 170,45.424 175,42.205 180,38.68 185,34.829 190,30.634 195,26.074 200,21.13 205,15.779 210,10" class="line"/>
</svg>