<svg width="220" height="80" xmlns="http://www.w3.org/2000/svg" viewBox="0 0 220 80">
  <!--
  PHP Easing Functions
  Author: Simon André <smn.andre@gmail.com>
  https://github.com/smnandre/easing-functions
  Licence: MIT
  -->
  <title>PHP easeOutQuad function</title>
  <defs>
    <linearGradient id="gradient" x1="0%" y1="0%" x2="100%" y2="0%">
      <stop offset='0%' stop-color='hsl(2.9999999999997, 100%, 50%)'/><stop offset='2.5%' stop-color='hsl(9.0000000000001, 100%, 50%)'/><stop offset='5%' stop-color='hsl(15, 100%, 50%)'/><stop offset='7.5%' stop-color='hsl(21, 100%, 50%)'/><stop offset='10%' stop-color='hsl(27, 100%, 50%)'/><stop offset='12.5%' stop-color='hsl(33, 100%, 50%)'/><stop offset='15%' stop-color='hsl(39, 100%, 50%)'/><stop offset='17.5%' stop-color='hsl(45.000000000001, 100%, 50%)'/><stop offset='20%' stop-color='hsl(51, 100%, 50%)'/><stop offset='22.5%' stop-color='hsl(57, 100%, 50%)'/><stop offset='25%' stop-color='hsl(63, 100%, 50%)'/><stop offset='27.5%' stop-color='hsl(69, 100%, 50%)'/><stop offset='30%' stop-color='hsl(75, 100%, 50%)'/><stop offset='32.5%' stop-color='hsl(81, 100%, 50%)'/><stop offset='35%' stop-color='hsl(87, 100%, 50%)'/><stop offset='37.5%' stop-color='hsl(93, 100%, 50%)'/><stop offset='40%' stop-color='hsl(99, 100%, 50%)'/><stop offset='42.5%' stop-color='hsl(105, 100%, 50%)'/><stop offset='45%' stop-color='hsl(111, 100%, 50%)'/><stop offset='47.5%' stop-color='hsl(117, 100%, 50%)'/><stop offset='50%' stop-color='hsl(123, 100%, 50%)'/><stop offset='52.5%' stop-color='hsl(129, 100%, 50%)'/><stop offset='55%' stop-color='hsl(135, 100%, 50%)'/><stop offset='57.5%' stop-color='hsl(141, 100%, 50%)'/><stop offset='60%' stop-color='hsl(147, 100%, 50%)'/><stop offset='62.5%' stop-color='hsl(153, 100%, 50%)'/><stop offset='65%' stop-color='hsl(159, 100%, 50%)'/><stop offset='67.5%' stop-color='hsl(165, 100%, 50%)'/><stop offset='70%' stop-color='hsl(171, 100%, 50%)'/><stop offset='72.5%' stop-color='hsl(177, 100%, 50%)'/><stop offset='75%' stop-color='hsl(183, 100%, 50%)'/><stop offset='77.5%' stop-color='hsl(189, 100%, 50%)'/><stop offset='80%' stop-color='hsl(195, 100%, 50%)'/><stop offset='82.5%' stop-color='hsl(201, 100%, 50%)'/><stop offset='85%' stop-color='hsl(207, 100%, 50%)'/><stop offset='87.5%' stop-color='hsl(213, 100%, 50%)'/><stop offset='90%' stop-color='hsl(219, 100%, 50%)'/><stop offset='92.5%' stop-color='hsl(225, 100%, 50%)'/><stop offset='95%' stop-color='hsl(231, 100%, 50%)'/><stop offset='97.5%' stop-color='hsl(237, 100%, 50%)'/>
    </linearGradient>
  </defs>
  <style>
    .line {
      fill: none;
      stroke: url(#gradient);
      stroke-width: 2;
      stroke-dasharray: 211.42148039277;
      stroke-dashoffset: 211.42148039277;
      animation: draw 2s linear infinite;
    }
    @keyframes draw {
      to { stroke-dashoffset: 0; }
    }
  </style>
  <rect width="100%" height="100%" fill="black"/>
  <polyline points="10,70 15,67.038 20,64.15 25,61.338 30,58.6 35,55.938 40,53.35 45,50.838 50,48.4 55,46.038 60,43.75 65,41.538 70,39.4 75,37.338 80,35.35 85,33.438 90,31.6 95,29.838 100,28.15 105,26.538 110,25 115,23.537 120,22.15 125,20.838 130,19.6 135,18.438 140,17.35 145,16.338 150,15.4 155,14.538 160,13.75 165,13.038 170,12.4 175,11.838 180,11.35 185,10.938 190,10.6 195,10.337 200,10.15 205,10.038 210,10" class="line"/>
</svg>