<svg width="100" height="70" xmlns="http://www.w3.org/2000/svg"><polyline fill="none" stroke="#999" stroke-width="4" stroke-linecap="round" points="5,65 5.9,62.6357606 6.8,60.3420896 7.7,58.1175686 8.6,55.9607936 9.5,53.870375 10.4,51.8449376 11.3,49.8831206 12.2,47.9835776 13.1,46.1449766 14,44.366 14.9,42.6453446 15.8,40.9817216 16.7,39.3738566 17.6,37.8204896 18.5,36.320375 19.4,34.8722816 20.3,33.4749926 21.2,32.1273056 22.1,30.8280326 23,29.576 23.9,28.3700486 24.8,27.2090336 25.7,26.0918246 26.6,25.0173056 27.5,23.984375 28.4,22.9919456 29.3,22.0389446 30.2,21.1243136 31.1,20.2470086 32,19.406 32.9,18.6002726 33.8,17.8288256 34.7,17.0906726 35.6,16.3848416 36.5,15.710375 37.4,15.0663296 38.3,14.4517766 39.2,13.8658016 40.1,13.3075046 41,12.776 41.9,12.2704166 42.8,11.7898976 43.7,11.3336006 44.6,10.9006976 45.5,10.490375 46.4,10.1018336 47.3,9.7342886 48.2,9.3869696 49.1,9.0591206 50,8.75 50.9,8.4588806 51.8,8.1850496 52.7,7.9278086 53.6,7.6864736 54.5,7.460375 55.4,7.2488576 56.3,7.0512806 57.2,6.8670176 58.1,6.6954566 59,6.536 59.9,6.3880646 60.8,6.2510816 61.7,6.1244966 62.6,6.0077696 63.5,5.900375 64.4,5.8018016 65.3,5.7115526 66.2,5.6291456 67.1,5.5541126 68,5.486 68.9,5.4243686 69.8,5.3687936 70.7,5.3188646 71.6,5.2741856 72.5,5.234375 73.4,5.1990656 74.3,5.1679046 75.2,5.1405536 76.1,5.1166886 77,5.096 77.9,5.0781926 78.8,5.0629856 79.7,5.0501126 80.6,5.0393216 81.5,5.030375 82.4,5.0230496 83.3,5.0171366 84.2,5.0124416 85.1,5.0087846 86,5.006 86.9,5.0039366 87.8,5.0024576 88.7,5.0014406 89.6,5.0007776 90.5,5.000375 91.4,5.0001536 92.3,5.0000486 93.2,5.0000096 94.1,5.0000006 95,5 "/>
</svg>