<svg width="100" height="70" xmlns="http://www.w3.org/2000/svg"><polyline fill="none" stroke="#999" stroke-width="4" stroke-linecap="round" points="5,65 5.9,64.99976 6.8,64.99808 7.7,64.99352 8.6,64.98464 9.5,64.97 10.4,64.94816 11.3,64.91768 12.2,64.87712 13.1,64.82504 14,64.76 14.9,64.68056 15.8,64.58528 16.7,64.47272 17.6,64.34144 18.5,64.19 19.4,64.01696 20.3,63.82088 21.2,63.60032 22.1,63.35384 23,63.08 23.9,62.77736 24.8,62.44448 25.7,62.07992 26.6,61.68224 27.5,61.25 28.4,60.78176 29.3,60.27608 30.2,59.73152 31.1,59.14664 32,58.52 32.9,57.85016 33.8,57.13568 34.7,56.37512 35.6,55.56704 36.5,54.71 37.4,53.80256 38.3,52.84328 39.2,51.83072 40.1,50.76344 41,49.64 41.9,48.45896 42.8,47.21888 43.7,45.91832 44.6,44.55584 45.5,43.13 46.4,41.63936 47.3,40.08248 48.2,38.45792 49.1,36.76424 50,35 50.9,33.23576 51.8,31.54208 52.7,29.91752 53.6,28.36064 54.5,26.87 55.4,25.44416 56.3,24.08168 57.2,22.78112 58.1,21.54104 59,20.36 59.9,19.23656 60.8,18.16928 61.7,17.15672 62.6,16.19744 63.5,15.29 64.4,14.43296 65.3,13.62488 66.2,12.86432 67.1,12.14984 68,11.48 68.9,10.85336 69.8,10.26848 70.7,9.72392 71.6,9.21824 72.5,8.75 73.4,8.31776 74.3,7.92008 75.2,7.55552 76.1,7.22264 77,6.92 77.9,6.64616 78.8,6.39968 79.7,6.17912 80.6,5.98304 81.5,5.81 82.4,5.65856 83.3,5.52728 84.2,5.41472 85.1,5.31944 86,5.24 86.9,5.17496 87.8,5.12288 88.7,5.08232 89.6,5.05184 90.5,5.03 91.4,5.01536 92.3,5.00648 93.2,5.00192 94.1,5.00024 95,5 "/>
</svg>