<svg width="160" height="60" xmlns="http://www.w3.org/2000/svg" viewBox="0 0 160 60">
  <!--
  PHP Easing Functions
  Author: Simon André <smn.andre@gmail.com>
  https://github.com/smnandre/easing-functions
  Licence: MIT
  -->
  <title>PHP easeIn Quint function</title>
  <polyline fill="none" stroke="#9d9b9e" stroke-width="3" stroke-linecap="round" points="10,50 14.667,50 19.333,50 24,50 28.667,49.998 33.333,49.995 38,49.987 42.667,49.972 47.333,49.946 52,49.903 56.667,49.835 61.333,49.735 66,49.59 70.667,49.389 75.333,49.115 80,48.75 84.667,48.274 89.333,47.663 94,46.89 98.667,45.924 103.333,44.733 108,43.277 112.667,41.517 117.333,39.405 122,36.893 126.667,33.925 131.333,30.442 136,26.38 140.667,21.67 145.333,16.237 150,10 "/>
</svg>