<svg width="160" height="60" xmlns="http://www.w3.org/2000/svg" viewBox="0 0 160 60">
  <!--
  PHP Easing Functions
  Author: Simon André <smn.andre@gmail.com>
  https://github.com/smnandre/easing-functions
  Licence: MIT
  -->
  <title>PHP easeInOut Quart function</title>
  <polyline fill="none" stroke="#9d9b9e" stroke-width="3" stroke-linecap="round" points="10,50 14.667,50 19.333,49.994 24,49.968 28.667,49.899 33.333,49.753 38,49.488 42.667,49.051 47.333,48.382 52,47.408 56.667,46.049 61.333,44.216 66,41.808 70.667,38.717 75.333,34.823 80,30 84.667,25.177 89.333,21.283 94,18.192 98.667,15.784 103.333,13.951 108,12.592 112.667,11.618 117.333,10.949 122,10.512 126.667,10.247 131.333,10.101 136,10.032 140.667,10.006 145.333,10 150,10 "/>
</svg>