<svg width="220" height="80" xmlns="http://www.w3.org/2000/svg" viewBox="0 0 220 80">
  <!--
  PHP Easing Functions
  Author: Simon André <smn.andre@gmail.com>
  https://github.com/smnandre/easing-functions
  Licence: MIT
  -->
  <title>PHP easeOutCubic function</title>
  <defs>
    <linearGradient id="gradient" x1="0%" y1="0%" x2="100%" y2="0%">
      <stop offset='0%' stop-color='hsl(0, 100%, 50%)'/><stop offset='2.5%' stop-color='hsl(0, 100%, 50%)'/><stop offset='5%' stop-color='hsl(0, 100%, 50%)'/><stop offset='7.5%' stop-color='hsl(0, 100%, 50%)'/><stop offset='10%' stop-color='hsl(0, 100%, 50%)'/><stop offset='12.5%' stop-color='hsl(0, 100%, 50%)'/><stop offset='15%' stop-color='hsl(0, 100%, 50%)'/><stop offset='17.5%' stop-color='hsl(2.325000000001, 100%, 50%)'/><stop offset='20%' stop-color='hsl(16.725, 100%, 50%)'/><stop offset='22.5%' stop-color='hsl(30.675, 100%, 50%)'/><stop offset='25%' stop-color='hsl(44.175, 100%, 50%)'/><stop offset='27.5%' stop-color='hsl(57.225, 100%, 50%)'/><stop offset='30%' stop-color='hsl(69.825000000001, 100%, 50%)'/><stop offset='32.5%' stop-color='hsl(81.974999999999, 100%, 50%)'/><stop offset='35%' stop-color='hsl(93.675, 100%, 50%)'/><stop offset='37.5%' stop-color='hsl(104.925, 100%, 50%)'/><stop offset='40%' stop-color='hsl(115.725, 100%, 50%)'/><stop offset='42.5%' stop-color='hsl(126.075, 100%, 50%)'/><stop offset='45%' stop-color='hsl(135.975, 100%, 50%)'/><stop offset='47.5%' stop-color='hsl(145.425, 100%, 50%)'/><stop offset='50%' stop-color='hsl(154.425, 100%, 50%)'/><stop offset='52.5%' stop-color='hsl(162.975, 100%, 50%)'/><stop offset='55%' stop-color='hsl(171.075, 100%, 50%)'/><stop offset='57.5%' stop-color='hsl(178.725, 100%, 50%)'/><stop offset='60%' stop-color='hsl(185.925, 100%, 50%)'/><stop offset='62.5%' stop-color='hsl(192.675, 100%, 50%)'/><stop offset='65%' stop-color='hsl(198.975, 100%, 50%)'/><stop offset='67.5%' stop-color='hsl(204.825, 100%, 50%)'/><stop offset='70%' stop-color='hsl(210.225, 100%, 50%)'/><stop offset='72.5%' stop-color='hsl(215.175, 100%, 50%)'/><stop offset='75%' stop-color='hsl(219.675, 100%, 50%)'/><stop offset='77.5%' stop-color='hsl(223.725, 100%, 50%)'/><stop offset='80%' stop-color='hsl(227.325, 100%, 50%)'/><stop offset='82.5%' stop-color='hsl(230.475, 100%, 50%)'/><stop offset='85%' stop-color='hsl(233.175, 100%, 50%)'/><stop offset='87.5%' stop-color='hsl(235.425, 100%, 50%)'/><stop offset='90%' stop-color='hsl(237.225, 100%, 50%)'/><stop offset='92.5%' stop-color='hsl(238.575, 100%, 50%)'/><stop offset='95%' stop-color='hsl(239.475, 100%, 50%)'/><stop offset='97.5%' stop-color='hsl(239.925, 100%, 50%)'/>
    </linearGradient>
  </defs>
  <style>
    .line {
      fill: none;
      stroke: url(#gradient);
      stroke-width: 2;
      stroke-dasharray: 214.74745705795;
      stroke-dashoffset: 214.74745705795;
      animation: draw 2s linear infinite;
    }
    @keyframes draw {
      to { stroke-dashoffset: 0; }
    }
  </style>
  <rect width="100%" height="100%" fill="black"/>
  <polyline points="10,70 15,65.612 20,61.442 25,57.487 30,53.74 35,50.195 40,46.848 45,43.691 50,40.72 55,37.929 60,35.313 65,32.865 70,30.58 75,28.453 80,26.478 85,24.648 90,22.96 95,21.407 100,19.983 105,18.682 110,17.5 115,16.43 120,15.468 125,14.606 130,13.84 135,13.164 140,12.573 145,12.06 150,11.62 155,11.248 160,10.938 165,10.683 170,10.48 175,10.322 180,10.203 185,10.117 190,10.06 195,10.025 200,10.008 205,10.001 210,10" class="line"/>
</svg>