<svg width="220" height="80" xmlns="http://www.w3.org/2000/svg" viewBox="0 0 220 80">
  <!--
  PHP Easing Functions
  Author: Simon André <smn.andre@gmail.com>
  https://github.com/smnandre/easing-functions
  Licence: MIT
  -->
  <title>PHP easeInOutQuad function</title>
  <defs>
    <linearGradient id="gradient" x1="0%" y1="0%" x2="100%" y2="0%">
      <stop offset='0%' stop-color='hsl(234, 100%, 50%)'/><stop offset='2.5%' stop-color='hsl(222, 100%, 50%)'/><stop offset='5%' stop-color='hsl(210, 100%, 50%)'/><stop offset='7.5%' stop-color='hsl(198, 100%, 50%)'/><stop offset='10%' stop-color='hsl(186, 100%, 50%)'/><stop offset='12.5%' stop-color='hsl(174, 100%, 50%)'/><stop offset='15%' stop-color='hsl(162, 100%, 50%)'/><stop offset='17.5%' stop-color='hsl(150, 100%, 50%)'/><stop offset='20%' stop-color='hsl(138, 100%, 50%)'/><stop offset='22.5%' stop-color='hsl(126, 100%, 50%)'/><stop offset='25%' stop-color='hsl(114, 100%, 50%)'/><stop offset='27.5%' stop-color='hsl(102, 100%, 50%)'/><stop offset='30%' stop-color='hsl(90, 100%, 50%)'/><stop offset='32.5%' stop-color='hsl(78, 100%, 50%)'/><stop offset='35%' stop-color='hsl(66, 100%, 50%)'/><stop offset='37.5%' stop-color='hsl(54, 100%, 50%)'/><stop offset='40%' stop-color='hsl(42, 100%, 50%)'/><stop offset='42.5%' stop-color='hsl(30, 100%, 50%)'/><stop offset='45%' stop-color='hsl(18, 100%, 50%)'/><stop offset='47.5%' stop-color='hsl(6.0000000000001, 100%, 50%)'/><stop offset='50%' stop-color='hsl(5.9999999999999, 100%, 50%)'/><stop offset='52.5%' stop-color='hsl(18, 100%, 50%)'/><stop offset='55%' stop-color='hsl(30, 100%, 50%)'/><stop offset='57.5%' stop-color='hsl(42, 100%, 50%)'/><stop offset='60%' stop-color='hsl(54, 100%, 50%)'/><stop offset='62.5%' stop-color='hsl(66, 100%, 50%)'/><stop offset='65%' stop-color='hsl(78, 100%, 50%)'/><stop offset='67.5%' stop-color='hsl(90, 100%, 50%)'/><stop offset='70%' stop-color='hsl(102, 100%, 50%)'/><stop offset='72.5%' stop-color='hsl(114, 100%, 50%)'/><stop offset='75%' stop-color='hsl(126, 100%, 50%)'/><stop offset='77.5%' stop-color='hsl(138, 100%, 50%)'/><stop offset='80%' stop-color='hsl(150, 100%, 50%)'/><stop offset='82.5%' stop-color='hsl(162, 100%, 50%)'/><stop offset='85%' stop-color='hsl(174, 100%, 50%)'/><stop offset='87.5%' stop-color='hsl(186, 100%, 50%)'/><stop offset='90%' stop-color='hsl(198, 100%, 50%)'/><stop offset='92.5%' stop-color='hsl(210, 100%, 50%)'/><stop offset='95%' stop-color='hsl(222, 100%, 50%)'/><stop offset='97.5%' stop-color='hsl(234, 100%, 50%)'/>
    </linearGradient>
  </defs>
  <style>
    .line {
      fill: none;
      stroke: url(#gradient);
      stroke-width: 2;
      stroke-dasharray: 211.41675621482;
      stroke-dashoffset: 211.41675621482;
      animation: draw 2s linear infinite;
    }
    @keyframes draw {
      to { stroke-dashoffset: 0; }
    }
  </style>
  <rect width="100%" height="100%" fill="black"/>
  <polyline points="10,70 15,69.925 20,69.7 25,69.325 30,68.8 35,68.125 40,67.3 45,66.325 50,65.2 55,63.925 60,62.5 65,60.925 70,59.2 75,57.325 80,55.3 85,53.125 90,50.8 95,48.325 100,45.7 105,42.925 110,40 115,37.075 120,34.3 125,31.675 130,29.2 135,26.875 140,24.7 145,22.675 150,20.8 155,19.075 160,17.5 165,16.075 170,14.8 175,13.675 180,12.7 185,11.875 190,11.2 195,10.675 200,10.3 205,10.075 210,10" class="line"/>
</svg>