<svg width="220" height="80" xmlns="http://www.w3.org/2000/svg" viewBox="0 0 220 80">
  <!--
  PHP Easing Functions
  Author: Simon André <smn.andre@gmail.com>
  https://github.com/smnandre/easing-functions
  Licence: MIT
  -->
  <title>PHP easeOutBack function</title>
  <defs>
    <linearGradient id="gradient" x1="0%" y1="0%" x2="100%" y2="0%">
      <stop offset='0%' stop-color='hsl(0, 100%, 50%)'/><stop offset='2.5%' stop-color='hsl(0, 100%, 50%)'/><stop offset='5%' stop-color='hsl(0, 100%, 50%)'/><stop offset='7.5%' stop-color='hsl(0, 100%, 50%)'/><stop offset='10%' stop-color='hsl(0, 100%, 50%)'/><stop offset='12.5%' stop-color='hsl(0, 100%, 50%)'/><stop offset='15%' stop-color='hsl(0, 100%, 50%)'/><stop offset='17.5%' stop-color='hsl(0, 100%, 50%)'/><stop offset='20%' stop-color='hsl(0, 100%, 50%)'/><stop offset='22.5%' stop-color='hsl(0, 100%, 50%)'/><stop offset='25%' stop-color='hsl(12.142756500001, 100%, 50%)'/><stop offset='27.5%' stop-color='hsl(37.1888955, 100%, 50%)'/><stop offset='30%' stop-color='hsl(61.019323500001, 100%, 50%)'/><stop offset='32.5%' stop-color='hsl(83.6340405, 100%, 50%)'/><stop offset='35%' stop-color='hsl(105.0330465, 100%, 50%)'/><stop offset='37.5%' stop-color='hsl(125.2163415, 100%, 50%)'/><stop offset='40%' stop-color='hsl(144.1839255, 100%, 50%)'/><stop offset='42.5%' stop-color='hsl(161.9357985, 100%, 50%)'/><stop offset='45%' stop-color='hsl(178.4719605, 100%, 50%)'/><stop offset='47.5%' stop-color='hsl(193.7924115, 100%, 50%)'/><stop offset='50%' stop-color='hsl(207.8971515, 100%, 50%)'/><stop offset='52.5%' stop-color='hsl(220.7861805, 100%, 50%)'/><stop offset='55%' stop-color='hsl(232.4594985, 100%, 50%)'/><stop offset='57.5%' stop-color='hsl(237.0828945, 100%, 50%)'/><stop offset='60%' stop-color='hsl(227.8409985, 100%, 50%)'/><stop offset='62.5%' stop-color='hsl(219.8148135, 100%, 50%)'/><stop offset='65%' stop-color='hsl(213.0043395, 100%, 50%)'/><stop offset='67.5%' stop-color='hsl(207.4095765, 100%, 50%)'/><stop offset='70%' stop-color='hsl(203.0305245, 100%, 50%)'/><stop offset='72.5%' stop-color='hsl(199.8671835, 100%, 50%)'/><stop offset='75%' stop-color='hsl(197.9195535, 100%, 50%)'/><stop offset='77.5%' stop-color='hsl(197.1876345, 100%, 50%)'/><stop offset='80%' stop-color='hsl(197.6714265, 100%, 50%)'/><stop offset='82.5%' stop-color='hsl(199.3709295, 100%, 50%)'/><stop offset='85%' stop-color='hsl(202.2861435, 100%, 50%)'/><stop offset='87.5%' stop-color='hsl(206.4170685, 100%, 50%)'/><stop offset='90%' stop-color='hsl(211.7637045, 100%, 50%)'/><stop offset='92.5%' stop-color='hsl(218.3260515, 100%, 50%)'/><stop offset='95%' stop-color='hsl(226.1041095, 100%, 50%)'/><stop offset='97.5%' stop-color='hsl(235.0978785, 100%, 50%)'/>
    </linearGradient>
  </defs>
  <style>
    .line {
      fill: none;
      stroke: url(#gradient);
      stroke-width: 2;
      stroke-dasharray: 223.82309888209;
      stroke-dashoffset: 223.82309888209;
      animation: draw 2s linear infinite;
    }
    @keyframes draw {
      to { stroke-dashoffset: 0; }
    }
  </style>
  <rect width="100%" height="100%" fill="black"/>
  <polyline points="10,70 15,63.185 20,56.835 25,50.936 30,45.47 35,40.425 40,35.783 45,31.53 50,27.652 55,24.132 60,20.955 65,18.107 70,15.572 75,13.335 80,11.38 85,9.693 90,8.258 95,7.061 100,6.085 105,5.316 110,4.738 115,4.337 120,4.097 125,4.002 130,4.039 135,4.191 140,4.443 145,4.781 150,5.188 155,5.65 160,6.152 165,6.678 170,7.213 175,7.742 180,8.25 185,8.721 190,9.141 195,9.494 200,9.765 205,9.939 210,10" class="line"/>
</svg>