<svg width="160" height="90" xmlns="http://www.w3.org/2000/svg">
  <style>
    .line { stroke-width: 4; stroke-dasharray: 171.53053124508; stroke-dashoffset: 171.53053124508; animation: draw 3s infinite; }
    @keyframes draw {
      to {
        stroke-dashoffset: 0;
      }
    }
    .line { --hue: 0; stroke: hsl(var(--hue), 100%, 50%); }
  </style><rect width="100%" height="100%" fill="#000"/><line x1="8" y1="82" x2="9.44" y2="81.999704" class="line" style="--hue:239.952"/><line x1="9.44" y1="81.999704" x2="10.88" y2="81.997632" class="line" style="--hue:239.664"/><line x1="10.88" y1="81.997632" x2="12.32" y2="81.992008" class="line" style="--hue:239.088"/><line x1="12.32" y1="81.992008" x2="13.76" y2="81.981056" class="line" style="--hue:238.224"/><line x1="13.76" y1="81.981056" x2="15.2" y2="81.963" class="line" style="--hue:237.072"/><line x1="15.2" y1="81.963" x2="16.64" y2="81.936064" class="line" style="--hue:235.632"/><line x1="16.64" y1="81.936064" x2="18.08" y2="81.898472" class="line" style="--hue:233.904"/><line x1="18.08" y1="81.898472" x2="19.52" y2="81.848448" class="line" style="--hue:231.888"/><line x1="19.52" y1="81.848448" x2="20.96" y2="81.784216" class="line" style="--hue:229.584"/><line x1="20.96" y1="81.784216" x2="22.4" y2="81.704" class="line" style="--hue:226.992"/><line x1="22.4" y1="81.704" x2="23.84" y2="81.606024" class="line" style="--hue:224.112"/><line x1="23.84" y1="81.606024" x2="25.28" y2="81.488512" class="line" style="--hue:220.944"/><line x1="25.28" y1="81.488512" x2="26.72" y2="81.349688" class="line" style="--hue:217.488"/><line x1="26.72" y1="81.349688" x2="28.16" y2="81.187776" class="line" style="--hue:213.744"/><line x1="28.16" y1="81.187776" x2="29.6" y2="81.001" class="line" style="--hue:209.712"/><line x1="29.6" y1="81.001" x2="31.04" y2="80.787584" class="line" style="--hue:205.392"/><line x1="31.04" y1="80.787584" x2="32.48" y2="80.545752" class="line" style="--hue:200.784"/><line x1="32.48" y1="80.545752" x2="33.92" y2="80.273728" class="line" style="--hue:195.888"/><line x1="33.92" y1="80.273728" x2="35.36" y2="79.969736" class="line" style="--hue:190.704"/><line x1="35.36" y1="79.969736" x2="36.8" y2="79.632" class="line" style="--hue:185.232"/><line x1="36.8" y1="79.632" x2="38.24" y2="79.258744" class="line" style="--hue:179.472"/><line x1="38.24" y1="79.258744" x2="39.68" y2="78.848192" class="line" style="--hue:173.424"/><line x1="39.68" y1="78.848192" x2="41.12" y2="78.398568" class="line" style="--hue:167.088"/><line x1="41.12" y1="78.398568" x2="42.56" y2="77.908096" class="line" style="--hue:160.464"/><line x1="42.56" y1="77.908096" x2="44" y2="77.375" class="line" style="--hue:153.552"/><line x1="44" y1="77.375" x2="45.44" y2="76.797504" class="line" style="--hue:146.352"/><line x1="45.44" y1="76.797504" x2="46.88" y2="76.173832" class="line" style="--hue:138.864"/><line x1="46.88" y1="76.173832" x2="48.32" y2="75.502208" class="line" style="--hue:131.088"/><line x1="48.32" y1="75.502208" x2="49.76" y2="74.780856" class="line" style="--hue:123.024"/><line x1="49.76" y1="74.780856" x2="51.2" y2="74.008" class="line" style="--hue:114.672"/><line x1="51.2" y1="74.008" x2="52.64" y2="73.181864" class="line" style="--hue:106.032"/><line x1="52.64" y1="73.181864" x2="54.08" y2="72.300672" class="line" style="--hue:97.104"/><line x1="54.08" y1="72.300672" x2="55.52" y2="71.362648" class="line" style="--hue:87.888"/><line x1="55.52" y1="71.362648" x2="56.96" y2="70.366016" class="line" style="--hue:78.384"/><line x1="56.96" y1="70.366016" x2="58.4" y2="69.309" class="line" style="--hue:68.592"/><line x1="58.4" y1="69.309" x2="59.84" y2="68.189824" class="line" style="--hue:58.512"/><line x1="59.84" y1="68.189824" x2="61.28" y2="67.006712" class="line" style="--hue:48.144"/><line x1="61.28" y1="67.006712" x2="62.72" y2="65.757888" class="line" style="--hue:37.488"/><line x1="62.72" y1="65.757888" x2="64.16" y2="64.441576" class="line" style="--hue:26.544"/><line x1="64.16" y1="64.441576" x2="65.6" y2="63.056" class="line" style="--hue:15.312"/><line x1="65.6" y1="63.056" x2="67.04" y2="61.599384" class="line" style="--hue:3.7920000000005"/><line x1="67.04" y1="61.599384" x2="68.48" y2="60.069952" class="line" style="--hue:0"/><line x1="68.48" y1="60.069952" x2="69.92" y2="58.465928" class="line" style="--hue:0"/><line x1="69.92" y1="58.465928" x2="71.36" y2="56.785536" class="line" style="--hue:0"/><line x1="71.36" y1="56.785536" x2="72.8" y2="55.027" class="line" style="--hue:0"/><line x1="72.8" y1="55.027" x2="74.24" y2="53.188544" class="line" style="--hue:0"/><line x1="74.24" y1="53.188544" x2="75.68" y2="51.268392" class="line" style="--hue:0"/><line x1="75.68" y1="51.268392" x2="77.12" y2="49.264768" class="line" style="--hue:0"/><line x1="77.12" y1="49.264768" x2="78.56" y2="47.175896" class="line" style="--hue:0"/><line x1="78.56" y1="47.175896" x2="80" y2="45" class="line" style="--hue:0"/><line x1="80" y1="45" x2="81.44" y2="42.824104" class="line" style="--hue:0"/><line x1="81.44" y1="42.824104" x2="82.88" y2="40.735232" class="line" style="--hue:0"/><line x1="82.88" y1="40.735232" x2="84.32" y2="38.731608" class="line" style="--hue:0"/><line x1="84.32" y1="38.731608" x2="85.76" y2="36.811456" class="line" style="--hue:0"/><line x1="85.76" y1="36.811456" x2="87.2" y2="34.973" class="line" style="--hue:0"/><line x1="87.2" y1="34.973" x2="88.64" y2="33.214464" class="line" style="--hue:0"/><line x1="88.64" y1="33.214464" x2="90.08" y2="31.534072" class="line" style="--hue:0"/><line x1="90.08" y1="31.534072" x2="91.52" y2="29.930048" class="line" style="--hue:0"/><line x1="91.52" y1="29.930048" x2="92.96" y2="28.400616" class="line" style="--hue:0"/><line x1="92.96" y1="28.400616" x2="94.4" y2="26.944" class="line" style="--hue:3.7919999999998"/><line x1="94.4" y1="26.944" x2="95.84" y2="25.558424" class="line" style="--hue:15.312000000001"/><line x1="95.84" y1="25.558424" x2="97.28" y2="24.242112" class="line" style="--hue:26.544"/><line x1="97.28" y1="24.242112" x2="98.72" y2="22.993288" class="line" style="--hue:37.488"/><line x1="98.72" y1="22.993288" x2="100.16" y2="21.810176" class="line" style="--hue:48.144"/><line x1="100.16" y1="21.810176" x2="101.6" y2="20.691" class="line" style="--hue:58.512"/><line x1="101.6" y1="20.691" x2="103.04" y2="19.633984" class="line" style="--hue:68.592000000001"/><line x1="103.04" y1="19.633984" x2="104.48" y2="18.637352" class="line" style="--hue:78.384"/><line x1="104.48" y1="18.637352" x2="105.92" y2="17.699328" class="line" style="--hue:87.888"/><line x1="105.92" y1="17.699328" x2="107.36" y2="16.818136" class="line" style="--hue:97.104"/><line x1="107.36" y1="16.818136" x2="108.8" y2="15.992" class="line" style="--hue:106.032"/><line x1="108.8" y1="15.992" x2="110.24" y2="15.219144" class="line" style="--hue:114.672"/><line x1="110.24" y1="15.219144" x2="111.68" y2="14.497792" class="line" style="--hue:123.024"/><line x1="111.68" y1="14.497792" x2="113.12" y2="13.826168" class="line" style="--hue:131.088"/><line x1="113.12" y1="13.826168" x2="114.56" y2="13.202496" class="line" style="--hue:138.864"/><line x1="114.56" y1="13.202496" x2="116" y2="12.625" class="line" style="--hue:146.352"/><line x1="116" y1="12.625" x2="117.44" y2="12.091904" class="line" style="--hue:153.552"/><line x1="117.44" y1="12.091904" x2="118.88" y2="11.601432" class="line" style="--hue:160.464"/><line x1="118.88" y1="11.601432" x2="120.32" y2="11.151808" class="line" style="--hue:167.088"/><line x1="120.32" y1="11.151808" x2="121.76" y2="10.741256" class="line" style="--hue:173.424"/><line x1="121.76" y1="10.741256" x2="123.2" y2="10.368" class="line" style="--hue:179.472"/><line x1="123.2" y1="10.368" x2="124.64" y2="10.030264" class="line" style="--hue:185.232"/><line x1="124.64" y1="10.030264" x2="126.08" y2="9.726272" class="line" style="--hue:190.704"/><line x1="126.08" y1="9.726272" x2="127.52" y2="9.454248" class="line" style="--hue:195.888"/><line x1="127.52" y1="9.454248" x2="128.96" y2="9.212416" class="line" style="--hue:200.784"/><line x1="128.96" y1="9.212416" x2="130.4" y2="8.999" class="line" style="--hue:205.392"/><line x1="130.4" y1="8.999" x2="131.84" y2="8.812224" class="line" style="--hue:209.712"/><line x1="131.84" y1="8.812224" x2="133.28" y2="8.650312" class="line" style="--hue:213.744"/><line x1="133.28" y1="8.650312" x2="134.72" y2="8.511488" class="line" style="--hue:217.488"/><line x1="134.72" y1="8.511488" x2="136.16" y2="8.393976" class="line" style="--hue:220.944"/><line x1="136.16" y1="8.393976" x2="137.6" y2="8.296" class="line" style="--hue:224.112"/><line x1="137.6" y1="8.296" x2="139.04" y2="8.215784" class="line" style="--hue:226.992"/><line x1="139.04" y1="8.215784" x2="140.48" y2="8.151552" class="line" style="--hue:229.584"/><line x1="140.48" y1="8.151552" x2="141.92" y2="8.101528" class="line" style="--hue:231.888"/><line x1="141.92" y1="8.101528" x2="143.36" y2="8.063936" class="line" style="--hue:233.904"/><line x1="143.36" y1="8.063936" x2="144.8" y2="8.037" class="line" style="--hue:235.632"/><line x1="144.8" y1="8.037" x2="146.24" y2="8.018944" class="line" style="--hue:237.072"/><line x1="146.24" y1="8.018944" x2="147.68" y2="8.007992" class="line" style="--hue:238.224"/><line x1="147.68" y1="8.007992" x2="149.12" y2="8.002368" class="line" style="--hue:239.088"/><line x1="149.12" y1="8.002368" x2="150.56" y2="8.000296" class="line" style="--hue:239.664"/><line x1="150.56" y1="8.000296" x2="152" y2="8" class="line" style="--hue:239.952"/></svg>